<?xml version="1.0" encoding="UTF-8" standalone="no"?>
<!DOCTYPE svg PUBLIC "-//W3C//DTD SVG 1.1//EN" "http://www.w3.org/Graphics/SVG/1.1/DTD/svg11.dtd">
<svg xmlns="http://www.w3.org/2000/svg" version="1.1" viewBox="0.00 0.00 138.00 161.00">
<g stroke-width="2.00" fill="none" stroke-linecap="butt">
<path stroke="#eaafe1" stroke-opacity="0.773" vector-effect="non-scaling-stroke" d="
  M 137.60 160.06
  L 137.66 126.71"
/>
<path stroke="#e783c8" stroke-opacity="0.773" vector-effect="non-scaling-stroke" d="
  M 137.66 126.71
  L 137.65 125.54"
/>
<path stroke="#eaafe1" stroke-opacity="0.773" vector-effect="non-scaling-stroke" d="
  M 137.65 125.54
  L 137.64 122.71"
/>
<path stroke="#e783c8" stroke-opacity="0.773" vector-effect="non-scaling-stroke" d="
  M 137.64 122.71
  L 137.59 121.50"
/>
<path stroke="#eaafe1" stroke-opacity="0.773" vector-effect="non-scaling-stroke" d="
  M 137.59 121.50
  L 137.72 90.46"
/>
<path stroke="#edc7ec" stroke-opacity="0.773" vector-effect="non-scaling-stroke" d="
  M 137.72 90.46
  L 137.73 21.52"
/>
<path stroke="#f1d9f3" stroke-opacity="0.773" vector-effect="non-scaling-stroke" d="
  M 137.73 21.52
  L 137.61 1.46
  A 0.45 0.45 0.0 0 0 137.16 1.02
  L 114.94 1.03"
/>
<path stroke="#f4e2f5" stroke-opacity="0.773" vector-effect="non-scaling-stroke" d="
  M 114.94 1.03
  L 0.97 1.01
  A 0.59 0.59 0.0 0 0 0.38 1.60
  L 0.39 106.21"
/>
<path stroke="#ecc0e8" stroke-opacity="0.773" vector-effect="non-scaling-stroke" d="
  M 0.39 106.21
  L 0.40 138.57"
/>
<path stroke="#eaafe1" stroke-opacity="0.773" vector-effect="non-scaling-stroke" d="
  M 0.40 138.57
  L 0.39 160.09"
/>
<path stroke="#eedbf1" vector-effect="non-scaling-stroke" d="
  M 114.94 1.03
  C 114.21 12.49 111.94 24.08 105.31 33.43
  C 99.75 41.28 95.12 37.69 91.58 30.90
  Q 85.87 19.95 79.99 10.91
  A 1.50 1.46 83.1 0 0 79.26 10.32
  Q 71.84 7.58 64.11 6.79"
/>
<path stroke="#ebb1de" vector-effect="non-scaling-stroke" d="
  M 64.11 6.79
  Q 56.18 6.42 50.26 10.93"
/>
<path stroke="#888297" vector-effect="non-scaling-stroke" d="
  M 50.26 10.93
  L 43.20 14.23"
/>
<path stroke="#918ca3" vector-effect="non-scaling-stroke" d="
  M 43.20 14.23
  Q 41.49 14.84 40.37 15.72"
/>
<path stroke="#eee8f4" vector-effect="non-scaling-stroke" d="
  M 40.37 15.72
  Q 40.15 15.88 39.94 16.03"
/>
<path stroke="#918ca3" vector-effect="non-scaling-stroke" d="
  M 39.94 16.03
  L 31.76 19.09
  A 0.58 0.57 -18.5 0 0 31.41 19.78
  L 32.99 25.65"
/>
<path stroke="#eee8f4" vector-effect="non-scaling-stroke" d="
  M 32.99 25.65
  L 25.18 30.38"
/>
<path stroke="#918ca3" vector-effect="non-scaling-stroke" d="
  M 25.18 30.38
  Q 23.05 29.69 22.19 33.19
  C 20.37 40.59 20.96 49.20 21.12 56.79"
/>
<path stroke="#888297" vector-effect="non-scaling-stroke" d="
  M 21.12 56.79
  L 21.10 58.51
  A 0.44 0.44 0.0 0 0 21.86 58.83
  L 35.87 44.58"
/>
<path stroke="#ebcdec" vector-effect="non-scaling-stroke" d="
  M 35.87 44.58
  C 37.74 43.81 39.37 42.74 41.22 42.10
  Q 46.63 40.24 51.77 38.76"
/>
<path stroke="#be7fac" vector-effect="non-scaling-stroke" d="
  M 51.77 38.76
  Q 55.16 38.34 57.30 37.31
  Q 64.49 33.85 69.70 31.87"
/>
<path stroke="#de8cc7" vector-effect="non-scaling-stroke" d="
  M 69.70 31.87
  Q 72.01 31.91 73.10 33.60"
/>
<path stroke="#ebb1de" vector-effect="non-scaling-stroke" d="
  M 73.10 33.60
  Q 72.69 39.72 69.70 43.50
  Q 65.45 48.88 63.33 50.11
  Q 55.12 54.93 52.53 57.30
  Q 47.58 61.82 39.24 70.47
  Q 34.77 75.09 30.74 82.74
  C 27.35 89.16 26.13 97.26 25.80 104.66"
/>
<path stroke="#eac8e9" vector-effect="non-scaling-stroke" d="
  M 25.80 104.66
  Q 13.43 107.77 0.39 106.21"
/>
<path stroke="#e9c6ea" vector-effect="non-scaling-stroke" d="
  M 137.73 21.52
  Q 132.87 32.48 123.31 48.57
  Q 115.51 61.70 105.29 70.76
  Q 100.16 75.31 92.47 79.40"
/>
<path stroke="#dc85c5" vector-effect="non-scaling-stroke" d="
  M 92.47 79.40
  Q 81.26 76.92 68.81 78.19
  Q 66.01 78.47 62.67 80.69
  Q 55.17 85.69 53.08 87.35"
/>
<path stroke="#bc78aa" vector-effect="non-scaling-stroke" d="
  M 53.08 87.35
  L 48.89 93.54
  A 0.28 0.27 63.5 0 1 48.39 93.37
  Q 48.63 87.26 52.15 82.17
  Q 58.03 73.65 65.69 67.62
  C 72.87 61.96 77.09 57.45 81.99 51.25
  Q 84.09 48.60 84.73 46.48
  Q 87.07 38.70 87.61 30.00
  Q 87.72 28.19 85.92 25.06"
/>
<path stroke="#dc85c5" vector-effect="non-scaling-stroke" d="
  M 85.92 25.06
  Q 82.85 17.24 75.70 11.30
  Q 71.08 7.46 63.95 6.96"
/>
<path stroke="#e9aadc" vector-effect="non-scaling-stroke" d="
  M 63.95 6.96
  Q 64.03 6.87 64.11 6.79"
/>
<path stroke="#d95bb1" vector-effect="non-scaling-stroke" d="
  M 63.95 6.96
  L 62.41 7.16
  A 0.17 0.16 -32.0 0 0 62.34 7.46
  L 70.01 12.46
  A 1.72 1.67 -87.6 0 1 70.61 13.13
  Q 72.12 16.23 72.06 19.60
  A 1.92 1.91 -11.7 0 1 70.93 21.31
  L 57.78 27.19"
/>
<path stroke="#e9aadc" vector-effect="non-scaling-stroke" d="
  M 57.78 27.19
  Q 62.50 21.40 65.37 15.85
  A 0.45 0.44 24.2 0 0 65.13 15.23
  Q 64.17 14.87 63.41 14.26"
/>
<path stroke="#e168bb" vector-effect="non-scaling-stroke" d="
  M 63.41 14.26
  Q 63.75 14.25 63.86 14.03
  A 0.26 0.26 0.0 0 0 63.78 13.70
  Q 60.40 11.45 56.45 10.99
  A 0.54 0.54 0.0 0 1 55.97 10.39
  Q 56.01 9.99 55.94 9.95
  A 0.56 0.50 -51.5 0 0 55.40 10.04
  L 53.05 11.84"
/>
<path stroke="#835182" vector-effect="non-scaling-stroke" d="
  M 53.05 11.84
  Q 52.45 10.95 50.26 10.93"
/>
<path stroke="#ac2980" vector-effect="non-scaling-stroke" d="
  M 85.92 25.06
  L 85.93 32.90
  A 1.51 1.39 -42.6 0 1 85.91 33.14
  Q 84.47 41.01 81.06 48.44
  A 2.82 2.82 0.0 0 1 80.33 49.40
  L 77.71 51.60
  A 1.94 1.74 -74.7 0 1 77.37 51.82
  Q 67.22 56.81 61.81 66.15
  A 6.72 6.70 -4.6 0 1 60.26 67.97
  L 56.28 71.22
  A 0.66 0.27 -22.5 0 0 56.18 71.32
  Q 53.78 74.46 47.06 83.92
  C 42.83 89.88 46.32 92.53 48.04 97.94
  A 0.70 0.70 0.0 0 0 49.40 97.87
  Q 50.33 93.40 53.61 89.09
  A 1.39 1.39 0.0 0 0 53.88 88.44
  Q 53.91 88.22 53.92 88.18
  A 0.64 0.64 0.0 0 0 53.50 87.55
  Q 53.31 87.48 53.08 87.35"
/>
<path stroke="#d977c0" vector-effect="non-scaling-stroke" d="
  M 92.47 79.40
  Q 104.07 85.96 114.50 93.67"
/>
<path stroke="#ac2980" vector-effect="non-scaling-stroke" d="
  M 114.50 93.67
  Q 112.01 93.78 110.95 94.56
  A 1.12 1.11 74.3 0 0 110.50 95.37
  C 110.25 98.60 110.39 103.27 109.12 105.87
  C 107.48 109.24 103.74 112.95 101.50 114.96
  A 3.51 3.50 81.4 0 0 100.67 116.09
  Q 98.27 121.30 97.83 124.82
  Q 97.45 127.83 94.80 127.31
  Q 92.07 126.79 87.35 125.11
  A 1.00 0.99 45.5 0 0 86.75 125.10
  L 82.56 126.46
  A 0.94 0.90 -81.8 0 0 82.07 126.84
  L 78.48 132.35
  A 1.92 1.92 0.0 0 1 76.18 133.09
  Q 70.64 130.95 65.55 129.27
  Q 60.42 127.57 51.50 126.87
  Q 47.07 126.51 38.90 127.29"
/>
<path stroke="#d872bd" vector-effect="non-scaling-stroke" d="
  M 38.90 127.29
  Q 34.66 124.01 30.96 118.53
  A 5.77 5.77 0.0 0 1 30.32 117.25
  L 26.55 106.49"
/>
<path stroke="#d95bb1" vector-effect="non-scaling-stroke" d="
  M 26.55 106.49
  Q 27.25 105.65 29.87 104.64
  Q 33.21 103.35 34.58 98.55
  Q 36.91 90.45 38.61 85.83
  A 8.02 7.72 -18.3 0 1 39.58 83.99
  Q 48.00 72.05 50.23 69.45
  Q 53.78 65.34 60.33 57.26
  A 1.44 1.31 -86.3 0 1 60.63 56.97
  L 70.63 49.65
  A 3.74 2.85 -3.6 0 0 71.00 49.33
  Q 73.81 46.32 75.57 42.34
  A 1.01 1.00 -87.2 0 1 76.19 41.77
  L 77.37 41.39
  A 1.12 1.12 0.0 0 0 78.00 40.86
  C 80.33 36.63 82.72 32.56 83.24 27.16
  A 0.91 0.91 0.0 0 0 81.88 26.29
  L 74.79 30.38
  A 0.51 0.51 0.0 0 0 74.68 31.17
  Q 75.66 32.21 75.57 33.12
  A 0.82 0.81 -0.5 0 1 74.86 33.84
  Q 73.91 33.96 73.10 33.60"
/>
<path stroke="#ac2980" vector-effect="non-scaling-stroke" d="
  M 69.70 31.87
  L 70.49 28.09
  A 0.36 0.36 0.0 0 0 70.01 27.68
  Q 69.72 27.79 69.54 28.20
  Q 69.35 28.62 68.62 29.05
  Q 66.56 30.26 64.60 31.49
  A 1.84 1.82 30.8 0 1 63.51 31.76
  Q 59.94 31.51 57.49 32.76"
/>
<path stroke="#d977c0" vector-effect="non-scaling-stroke" d="
  M 57.49 32.76
  Q 56.49 32.40 54.96 31.54
  Q 53.85 30.91 54.29 29.98"
/>
<path stroke="#dc92c8" vector-effect="non-scaling-stroke" d="
  M 54.29 29.98
  L 56.12 28.02"
/>
<path stroke="#dc85c5" vector-effect="non-scaling-stroke" d="
  M 56.12 28.02
  Q 58.35 26.41 57.78 27.19"
/>
<path stroke="#d95bb1" vector-effect="non-scaling-stroke" d="
  M 71.70 97.23
  Q 69.53 99.06 69.13 101.07
  A 1.14 1.12 22.5 0 0 69.62 102.22
  L 80.34 109.20
  A 1.80 1.79 -52.4 0 0 82.65 108.89
  L 85.06 106.22"
/>
<path stroke="#d443a4" vector-effect="non-scaling-stroke" d="
  M 85.06 106.22
  L 93.55 95.52
  A 0.61 0.61 0.0 0 0 93.22 94.55
  Q 85.83 92.68 79.57 88.28
  A 1.09 1.09 0.0 0 0 78.06 88.53
  L 71.70 97.23"
/>
<path stroke="#e168bb" vector-effect="non-scaling-stroke" d="
  M 85.06 106.22
  Q 79.72 99.97 71.70 97.23"
/>
<path stroke="#e492cf" vector-effect="non-scaling-stroke" d="
  M 63.41 14.26
  Q 59.04 12.28 53.84 13.39"
/>
<path stroke="#7e3875" vector-effect="non-scaling-stroke" d="
  M 53.84 13.39
  Q 53.02 12.47 53.05 11.84"
/>
<path stroke="#867b95" vector-effect="non-scaling-stroke" d="
  M 53.84 13.39
  L 54.49 16.77"
/>
<path stroke="#888297" vector-effect="non-scaling-stroke" d="
  M 54.49 16.77
  Q 54.88 17.77 55.05 18.42
  A 1.03 0.98 -42.4 0 0 56.96 18.46
  Q 57.11 18.08 57.03 17.72
  Q 56.95 17.35 56.55 17.16
  Q 56.07 16.93 55.46 16.93"
/>
<path stroke="#867b95" vector-effect="non-scaling-stroke" d="
  M 55.46 16.93
  Q 54.91 16.59 55.09 16.14
  A 0.37 0.37 0.0 0 1 55.38 15.91
  Q 57.67 15.54 58.66 17.23"
/>
<path stroke="#868798" vector-effect="non-scaling-stroke" d="
  M 58.66 17.23
  C 58.23 20.22 56.27 20.69 53.93 21.07
  A 0.90 0.88 4.4 0 0 53.24 21.65
  Q 52.29 24.24 49.82 25.78
  Q 44.23 29.27 42.18 21.95"
/>
<path stroke="#292b47" vector-effect="non-scaling-stroke" d="
  M 42.18 21.95
  L 45.81 24.76
  A 2.26 2.26 0.0 0 0 49.18 24.05
  Q 51.82 19.22 51.83 13.42
  A 0.79 0.78 79.0 0 0 50.75 12.69
  Q 47.28 14.09 43.20 14.23"
/>
<path stroke="#8f91a4" vector-effect="non-scaling-stroke" d="
  M 42.18 21.95
  L 40.37 15.72"
/>
<path stroke="#ece1f2" vector-effect="non-scaling-stroke" d="
  M 56.12 28.02
  L 63.01 17.15
  A 0.78 0.78 0.0 0 0 62.60 15.99
  Q 60.09 15.14 58.66 17.23"
/>
<path stroke="#eedbf1" vector-effect="non-scaling-stroke" d="
  M 55.46 16.93
  Q 54.99 16.99 54.49 16.77"
/>
<path stroke="#8f91a4" vector-effect="non-scaling-stroke" d="
  M 39.94 16.03
  Q 40.04 18.87 39.97 21.74
  C 39.93 23.89 37.03 24.30 35.74 24.81
  Q 34.40 25.33 32.99 25.65"
/>
<path stroke="#e9d3ed" vector-effect="non-scaling-stroke" d="
  M 54.29 29.98
  Q 52.28 29.62 50.47 30.47"
/>
<path stroke="#ece1f2" vector-effect="non-scaling-stroke" d="
  M 50.47 30.47
  Q 39.79 32.47 29.77 36.32"
/>
<path stroke="#8f91a4" vector-effect="non-scaling-stroke" d="
  M 29.77 36.32
  Q 26.98 33.72 25.18 30.38"
/>
<path stroke="#e4a6dd" vector-effect="non-scaling-stroke" d="
  M 137.72 90.46
  L 137.27 98.76
  A 0.56 0.56 0.0 0 1 136.74 99.29
  Q 127.46 99.85 118.24 97.97"
/>
<path stroke="#b96aa5" vector-effect="non-scaling-stroke" d="
  M 118.24 97.97
  L 114.50 93.67"
/>
<path stroke="#e597d4" vector-effect="non-scaling-stroke" d="
  M 26.55 106.49
  Q 26.07 106.18 25.80 104.66"
/>
<path stroke="#b96aa5" vector-effect="non-scaling-stroke" d="
  M 51.77 38.76
  L 57.70 34.62
  A 0.82 0.82 0.0 0 0 58.01 33.68
  Q 57.87 33.28 57.49 32.76"
/>
<path stroke="#836d90" vector-effect="non-scaling-stroke" d="
  M 35.87 44.58
  Q 34.63 41.91 32.43 39.87"
/>
<path stroke="#e9c6ea" vector-effect="non-scaling-stroke" d="
  M 32.43 39.87
  L 36.32 42.03
  A 0.87 0.86 41.3 0 0 37.22 41.98
  C 42.83 38.02 47.85 36.84 54.55 35.06
  A 0.55 0.55 0.0 0 0 54.41 33.98
  L 48.47 33.98
  A 0.47 0.46 31.6 0 1 48.26 33.10
  Q 49.25 32.60 49.25 31.80
  A 0.85 0.85 0.0 0 1 49.70 31.05
  Q 50.19 30.80 50.47 30.47"
/>
<path stroke="#8f85a1" vector-effect="non-scaling-stroke" d="
  M 29.77 36.32
  L 30.27 37.21"
/>
<path stroke="#292b47" vector-effect="non-scaling-stroke" d="
  M 30.27 37.21
  Q 29.21 37.32 28.89 37.89
  Q 26.30 42.45 24.19 49.84
  C 23.80 51.20 23.13 52.45 22.73 53.80
  Q 22.72 53.84 21.63 55.14
  Q 21.09 55.78 21.12 56.79"
/>
<path stroke="#867b95" vector-effect="non-scaling-stroke" d="
  M 32.43 39.87
  L 30.27 37.21"
/>
<path stroke="#df71c1" vector-effect="non-scaling-stroke" d="
  M 137.59 121.50
  L 137.64 122.71"
/>
<path stroke="#df71c1" vector-effect="non-scaling-stroke" d="
  M 137.65 125.54
  L 137.66 126.71"
/>
<path stroke="#ac69a2" stroke-opacity="0.722" vector-effect="non-scaling-stroke" d="
  M 137.60 160.06
  L 0.39 160.09"
/>
<path stroke="#e3a0da" vector-effect="non-scaling-stroke" d="
  M 0.40 138.57
  C 17.51 144.36 32.14 140.03 47.20 131.46"
/>
<path stroke="#b7579d" vector-effect="non-scaling-stroke" d="
  M 47.20 131.46
  Q 53.38 133.23 59.52 134.97
  Q 62.27 135.75 69.84 136.65"
/>
<path stroke="#e9bbe4" vector-effect="non-scaling-stroke" d="
  M 69.84 136.65
  Q 71.33 144.35 71.00 151.72
  Q 70.97 152.21 72.15 154.64
  A 0.77 0.77 0.0 0 0 72.99 155.06
  Q 73.92 154.89 75.21 155.30
  A 0.52 0.52 0.0 0 0 75.88 154.82
  C 75.96 151.49 75.19 147.63 76.46 144.14
  A 2.39 2.30 -38.9 0 0 76.59 143.12
  Q 76.35 140.09 77.02 137.34"
/>
<path stroke="#b7579d" vector-effect="non-scaling-stroke" d="
  M 77.02 137.34
  Q 89.65 134.47 102.09 130.56
  Q 106.39 129.20 107.90 129.33
  C 111.91 129.68 116.51 131.89 119.76 133.51
  C 123.96 135.60 128.29 136.66 131.97 137.13
  A 0.71 0.71 0.0 0 0 132.75 136.54
  C 133.59 131.43 132.25 126.38 130.56 121.39
  A 1.98 1.94 -48.2 0 1 130.51 120.31
  Q 130.95 118.51 130.05 116.51
  Q 125.52 106.49 118.24 97.97"
/>
<path stroke="#be7fac" vector-effect="non-scaling-stroke" d="
  M 77.02 137.34
  L 69.84 136.65"
/>
<path stroke="#b864a2" vector-effect="non-scaling-stroke" d="
  M 47.20 131.46
  C 43.96 130.51 41.27 130.37 38.90 127.29"
/>
</g>
<path fill="#fae3f9" fill-opacity="0.541" d="
  M 138.00 0.00
  L 138.00 161.00
  L 137.48 161.00
  Q 137.81 160.36 137.60 160.06
  L 137.66 126.71
  L 137.65 125.54
  L 137.64 122.71
  L 137.59 121.50
  L 137.72 90.46
  L 137.73 21.52
  L 137.61 1.46
  A 0.45 0.45 0.0 0 0 137.16 1.02
  L 114.94 1.03
  L 0.97 1.01
  A 0.59 0.59 0.0 0 0 0.38 1.60
  L 0.39 106.21
  L 0.40 138.57
  L 0.39 160.09
  Q 0.65 159.78 0.00 160.12
  L 0.00 0.00
  L 138.00 0.00
  Z"
/>
<path fill="#f0e2f3" d="
  M 114.94 1.03
  C 114.21 12.49 111.94 24.08 105.31 33.43
  C 99.75 41.28 95.12 37.69 91.58 30.90
  Q 85.87 19.95 79.99 10.91
  A 1.50 1.46 83.1 0 0 79.26 10.32
  Q 71.84 7.58 64.11 6.79
  Q 56.18 6.42 50.26 10.93
  L 43.20 14.23
  Q 41.49 14.84 40.37 15.72
  Q 40.15 15.88 39.94 16.03
  L 31.76 19.09
  A 0.58 0.57 -18.5 0 0 31.41 19.78
  L 32.99 25.65
  L 25.18 30.38
  Q 23.05 29.69 22.19 33.19
  C 20.37 40.59 20.96 49.20 21.12 56.79
  L 21.10 58.51
  A 0.44 0.44 0.0 0 0 21.86 58.83
  L 35.87 44.58
  C 37.74 43.81 39.37 42.74 41.22 42.10
  Q 46.63 40.24 51.77 38.76
  Q 55.16 38.34 57.30 37.31
  Q 64.49 33.85 69.70 31.87
  Q 72.01 31.91 73.10 33.60
  Q 72.69 39.72 69.70 43.50
  Q 65.45 48.88 63.33 50.11
  Q 55.12 54.93 52.53 57.30
  Q 47.58 61.82 39.24 70.47
  Q 34.77 75.09 30.74 82.74
  C 27.35 89.16 26.13 97.26 25.80 104.66
  Q 13.43 107.77 0.39 106.21
  L 0.38 1.60
  A 0.59 0.59 0.0 0 1 0.97 1.01
  L 114.94 1.03
  Z"
/>
<path fill="#ecd4ef" d="
  M 137.73 21.52
  Q 132.87 32.48 123.31 48.57
  Q 115.51 61.70 105.29 70.76
  Q 100.16 75.31 92.47 79.40
  Q 81.26 76.92 68.81 78.19
  Q 66.01 78.47 62.67 80.69
  Q 55.17 85.69 53.08 87.35
  L 48.89 93.54
  A 0.28 0.27 63.5 0 1 48.39 93.37
  Q 48.63 87.26 52.15 82.17
  Q 58.03 73.65 65.69 67.62
  C 72.87 61.96 77.09 57.45 81.99 51.25
  Q 84.09 48.60 84.73 46.48
  Q 87.07 38.70 87.61 30.00
  Q 87.72 28.19 85.92 25.06
  Q 82.85 17.24 75.70 11.30
  Q 71.08 7.46 63.95 6.96
  Q 64.03 6.87 64.11 6.79
  Q 71.84 7.58 79.26 10.32
  A 1.50 1.46 83.1 0 1 79.99 10.91
  Q 85.87 19.95 91.58 30.90
  C 95.12 37.69 99.75 41.28 105.31 33.43
  C 111.94 24.08 114.21 12.49 114.94 1.03
  L 137.16 1.02
  A 0.45 0.45 0.0 0 1 137.61 1.46
  L 137.73 21.52
  Z"
/>
<path fill="#e580c8" d="
  M 64.11 6.79
  Q 64.03 6.87 63.95 6.96
  L 62.41 7.16
  A 0.17 0.16 -32.0 0 0 62.34 7.46
  L 70.01 12.46
  A 1.72 1.67 -87.6 0 1 70.61 13.13
  Q 72.12 16.23 72.06 19.60
  A 1.92 1.91 -11.7 0 1 70.93 21.31
  L 57.78 27.19
  Q 62.50 21.40 65.37 15.85
  A 0.45 0.44 24.2 0 0 65.13 15.23
  Q 64.17 14.87 63.41 14.26
  Q 63.75 14.25 63.86 14.03
  A 0.26 0.26 0.0 0 0 63.78 13.70
  Q 60.40 11.45 56.45 10.99
  A 0.54 0.54 0.0 0 1 55.97 10.39
  Q 56.01 9.99 55.94 9.95
  A 0.56 0.50 -51.5 0 0 55.40 10.04
  L 53.05 11.84
  Q 52.45 10.95 50.26 10.93
  Q 56.18 6.42 64.11 6.79
  Z"
/>
<path fill="#cc369a" d="
  M 63.95 6.96
  Q 71.08 7.46 75.70 11.30
  Q 82.85 17.24 85.92 25.06
  L 85.93 32.90
  A 1.51 1.39 -42.6 0 1 85.91 33.14
  Q 84.47 41.01 81.06 48.44
  A 2.82 2.82 0.0 0 1 80.33 49.40
  L 77.71 51.60
  A 1.94 1.74 -74.7 0 1 77.37 51.82
  Q 67.22 56.81 61.81 66.15
  A 6.72 6.70 -4.6 0 1 60.26 67.97
  L 56.28 71.22
  A 0.66 0.27 -22.5 0 0 56.18 71.32
  Q 53.78 74.46 47.06 83.92
  C 42.83 89.88 46.32 92.53 48.04 97.94
  A 0.70 0.70 0.0 0 0 49.40 97.87
  Q 50.33 93.40 53.61 89.09
  A 1.39 1.39 0.0 0 0 53.88 88.44
  Q 53.91 88.22 53.92 88.18
  A 0.64 0.64 0.0 0 0 53.50 87.55
  Q 53.31 87.48 53.08 87.35
  Q 55.17 85.69 62.67 80.69
  Q 66.01 78.47 68.81 78.19
  Q 81.26 76.92 92.47 79.40
  Q 104.07 85.96 114.50 93.67
  Q 112.01 93.78 110.95 94.56
  A 1.12 1.11 74.3 0 0 110.50 95.37
  C 110.25 98.60 110.39 103.27 109.12 105.87
  C 107.48 109.24 103.74 112.95 101.50 114.96
  A 3.51 3.50 81.4 0 0 100.67 116.09
  Q 98.27 121.30 97.83 124.82
  Q 97.45 127.83 94.80 127.31
  Q 92.07 126.79 87.35 125.11
  A 1.00 0.99 45.5 0 0 86.75 125.10
  L 82.56 126.46
  A 0.94 0.90 -81.8 0 0 82.07 126.84
  L 78.48 132.35
  A 1.92 1.92 0.0 0 1 76.18 133.09
  Q 70.64 130.95 65.55 129.27
  Q 60.42 127.57 51.50 126.87
  Q 47.07 126.51 38.90 127.29
  Q 34.66 124.01 30.96 118.53
  A 5.77 5.77 0.0 0 1 30.32 117.25
  L 26.55 106.49
  Q 27.25 105.65 29.87 104.64
  Q 33.21 103.35 34.58 98.55
  Q 36.91 90.45 38.61 85.83
  A 8.02 7.72 -18.3 0 1 39.58 83.99
  Q 48.00 72.05 50.23 69.45
  Q 53.78 65.34 60.33 57.26
  A 1.44 1.31 -86.3 0 1 60.63 56.97
  L 70.63 49.65
  A 3.74 2.85 -3.6 0 0 71.00 49.33
  Q 73.81 46.32 75.57 42.34
  A 1.01 1.00 -87.2 0 1 76.19 41.77
  L 77.37 41.39
  A 1.12 1.12 0.0 0 0 78.00 40.86
  C 80.33 36.63 82.72 32.56 83.24 27.16
  A 0.91 0.91 0.0 0 0 81.88 26.29
  L 74.79 30.38
  A 0.51 0.51 0.0 0 0 74.68 31.17
  Q 75.66 32.21 75.57 33.12
  A 0.82 0.81 -0.5 0 1 74.86 33.84
  Q 73.91 33.96 73.10 33.60
  Q 72.01 31.91 69.70 31.87
  L 70.49 28.09
  A 0.36 0.36 0.0 0 0 70.01 27.68
  Q 69.72 27.79 69.54 28.20
  Q 69.35 28.62 68.62 29.05
  Q 66.56 30.26 64.60 31.49
  A 1.84 1.82 30.8 0 1 63.51 31.76
  Q 59.94 31.51 57.49 32.76
  Q 56.49 32.40 54.96 31.54
  Q 53.85 30.91 54.29 29.98
  L 56.12 28.02
  Q 58.35 26.41 57.78 27.19
  L 70.93 21.31
  A 1.92 1.91 -11.7 0 0 72.06 19.60
  Q 72.12 16.23 70.61 13.13
  A 1.72 1.67 -87.6 0 0 70.01 12.46
  L 62.34 7.46
  A 0.17 0.16 -32.0 0 1 62.41 7.16
  L 63.95 6.96
  Z
  M 71.70 97.23
  Q 69.53 99.06 69.13 101.07
  A 1.14 1.12 22.5 0 0 69.62 102.22
  L 80.34 109.20
  A 1.80 1.79 -52.4 0 0 82.65 108.89
  L 85.06 106.22
  L 93.55 95.52
  A 0.61 0.61 0.0 0 0 93.22 94.55
  Q 85.83 92.68 79.57 88.28
  A 1.09 1.09 0.0 0 0 78.06 88.53
  L 71.70 97.23
  Z"
/>
<path fill="#dc4fae" d="
  M 63.41 14.26
  Q 59.04 12.28 53.84 13.39
  Q 53.02 12.47 53.05 11.84
  L 55.40 10.04
  A 0.56 0.50 -51.5 0 1 55.94 9.95
  Q 56.01 9.99 55.97 10.39
  A 0.54 0.54 0.0 0 0 56.45 10.99
  Q 60.40 11.45 63.78 13.70
  A 0.26 0.26 0.0 0 1 63.86 14.03
  Q 63.75 14.25 63.41 14.26
  Z"
/>
<path fill="#20213b" d="
  M 53.05 11.84
  Q 53.02 12.47 53.84 13.39
  L 54.49 16.77
  Q 54.88 17.77 55.05 18.42
  A 1.03 0.98 -42.4 0 0 56.96 18.46
  Q 57.11 18.08 57.03 17.72
  Q 56.95 17.35 56.55 17.16
  Q 56.07 16.93 55.46 16.93
  Q 54.91 16.59 55.09 16.14
  A 0.37 0.37 0.0 0 1 55.38 15.91
  Q 57.67 15.54 58.66 17.23
  C 58.23 20.22 56.27 20.69 53.93 21.07
  A 0.90 0.88 4.4 0 0 53.24 21.65
  Q 52.29 24.24 49.82 25.78
  Q 44.23 29.27 42.18 21.95
  L 45.81 24.76
  A 2.26 2.26 0.0 0 0 49.18 24.05
  Q 51.82 19.22 51.83 13.42
  A 0.79 0.78 79.0 0 0 50.75 12.69
  Q 47.28 14.09 43.20 14.23
  L 50.26 10.93
  Q 52.45 10.95 53.05 11.84
  Z"
/>
<path fill="#323553" d="
  M 42.18 21.95
  L 40.37 15.72
  Q 41.49 14.84 43.20 14.23
  Q 47.28 14.09 50.75 12.69
  A 0.79 0.78 79.0 0 1 51.83 13.42
  Q 51.82 19.22 49.18 24.05
  A 2.26 2.26 0.0 0 1 45.81 24.76
  L 42.18 21.95
  Z"
/>
<path fill="#ecd4ef" d="
  M 63.41 14.26
  Q 64.17 14.87 65.13 15.23
  A 0.45 0.44 24.2 0 1 65.37 15.85
  Q 62.50 21.40 57.78 27.19
  Q 58.35 26.41 56.12 28.02
  L 63.01 17.15
  A 0.78 0.78 0.0 0 0 62.60 15.99
  Q 60.09 15.14 58.66 17.23
  Q 57.67 15.54 55.38 15.91
  A 0.37 0.37 0.0 0 0 55.09 16.14
  Q 54.91 16.59 55.46 16.93
  Q 54.99 16.99 54.49 16.77
  L 53.84 13.39
  Q 59.04 12.28 63.41 14.26
  Z"
/>
<path fill="#323553" d="
  M 39.94 16.03
  Q 40.04 18.87 39.97 21.74
  C 39.93 23.89 37.03 24.30 35.74 24.81
  Q 34.40 25.33 32.99 25.65
  L 31.41 19.78
  A 0.58 0.57 -18.5 0 1 31.76 19.09
  L 39.94 16.03
  Z"
/>
<path fill="#ecedf5" d="
  M 56.12 28.02
  L 54.29 29.98
  Q 52.28 29.62 50.47 30.47
  Q 39.79 32.47 29.77 36.32
  Q 26.98 33.72 25.18 30.38
  L 32.99 25.65
  Q 34.40 25.33 35.74 24.81
  C 37.03 24.30 39.93 23.89 39.97 21.74
  Q 40.04 18.87 39.94 16.03
  Q 40.15 15.88 40.37 15.72
  L 42.18 21.95
  Q 44.23 29.27 49.82 25.78
  Q 52.29 24.24 53.24 21.65
  A 0.90 0.88 4.4 0 1 53.93 21.07
  C 56.27 20.69 58.23 20.22 58.66 17.23
  Q 60.09 15.14 62.60 15.99
  A 0.78 0.78 0.0 0 1 63.01 17.15
  L 56.12 28.02
  Z"
/>
<path fill="#f0e2f3" d="
  M 55.46 16.93
  Q 56.07 16.93 56.55 17.16
  Q 56.95 17.35 57.03 17.72
  Q 57.11 18.08 56.96 18.46
  A 1.03 0.98 -42.4 0 1 55.05 18.42
  Q 54.88 17.77 54.49 16.77
  Q 54.99 16.99 55.46 16.93
  Z"
/>
<path fill="#e6b8e5" d="
  M 137.72 90.46
  L 137.27 98.76
  A 0.56 0.56 0.0 0 1 136.74 99.29
  Q 127.46 99.85 118.24 97.97
  L 114.50 93.67
  Q 104.07 85.96 92.47 79.40
  Q 100.16 75.31 105.29 70.76
  Q 115.51 61.70 123.31 48.57
  Q 132.87 32.48 137.73 21.52
  L 137.72 90.46
  Z"
/>
<path fill="#8c1b65" d="
  M 85.92 25.06
  Q 87.72 28.19 87.61 30.00
  Q 87.07 38.70 84.73 46.48
  Q 84.09 48.60 81.99 51.25
  C 77.09 57.45 72.87 61.96 65.69 67.62
  Q 58.03 73.65 52.15 82.17
  Q 48.63 87.26 48.39 93.37
  A 0.28 0.27 63.5 0 0 48.89 93.54
  L 53.08 87.35
  Q 53.31 87.48 53.50 87.55
  A 0.64 0.64 0.0 0 1 53.92 88.18
  Q 53.91 88.22 53.88 88.44
  A 1.39 1.39 0.0 0 1 53.61 89.09
  Q 50.33 93.40 49.40 97.87
  A 0.70 0.70 0.0 0 1 48.04 97.94
  C 46.32 92.53 42.83 89.88 47.06 83.92
  Q 53.78 74.46 56.18 71.32
  A 0.66 0.27 -22.5 0 1 56.28 71.22
  L 60.26 67.97
  A 6.72 6.70 -4.6 0 0 61.81 66.15
  Q 67.22 56.81 77.37 51.82
  A 1.94 1.74 -74.7 0 0 77.71 51.60
  L 80.33 49.40
  A 2.82 2.82 0.0 0 0 81.06 48.44
  Q 84.47 41.01 85.91 33.14
  A 1.51 1.39 -42.6 0 0 85.93 32.90
  L 85.92 25.06
  Z"
/>
<path fill="#e580c8" d="
  M 26.55 106.49
  Q 26.07 106.18 25.80 104.66
  C 26.13 97.26 27.35 89.16 30.74 82.74
  Q 34.77 75.09 39.24 70.47
  Q 47.58 61.82 52.53 57.30
  Q 55.12 54.93 63.33 50.11
  Q 65.45 48.88 69.70 43.50
  Q 72.69 39.72 73.10 33.60
  Q 73.91 33.96 74.86 33.84
  A 0.82 0.81 -0.5 0 0 75.57 33.12
  Q 75.66 32.21 74.68 31.17
  A 0.51 0.51 0.0 0 1 74.79 30.38
  L 81.88 26.29
  A 0.91 0.91 0.0 0 1 83.24 27.16
  C 82.72 32.56 80.33 36.63 78.00 40.86
  A 1.12 1.12 0.0 0 1 77.37 41.39
  L 76.19 41.77
  A 1.01 1.00 -87.2 0 0 75.57 42.34
  Q 73.81 46.32 71.00 49.33
  A 3.74 2.85 -3.6 0 1 70.63 49.65
  L 60.63 56.97
  A 1.44 1.31 -86.3 0 0 60.33 57.26
  Q 53.78 65.34 50.23 69.45
  Q 48.00 72.05 39.58 83.99
  A 8.02 7.72 -18.3 0 0 38.61 85.83
  Q 36.91 90.45 34.58 98.55
  Q 33.21 103.35 29.87 104.64
  Q 27.25 105.65 26.55 106.49
  Z"
/>
<path fill="#8c1b65" d="
  M 69.70 31.87
  Q 64.49 33.85 57.30 37.31
  Q 55.16 38.34 51.77 38.76
  L 57.70 34.62
  A 0.82 0.82 0.0 0 0 58.01 33.68
  Q 57.87 33.28 57.49 32.76
  Q 59.94 31.51 63.51 31.76
  A 1.84 1.82 30.8 0 0 64.60 31.49
  Q 66.56 30.26 68.62 29.05
  Q 69.35 28.62 69.54 28.20
  Q 69.72 27.79 70.01 27.68
  A 0.36 0.36 0.0 0 1 70.49 28.09
  L 69.70 31.87
  Z"
/>
<path fill="#e6b8e5" d="
  M 54.29 29.98
  Q 53.85 30.91 54.96 31.54
  Q 56.49 32.40 57.49 32.76
  Q 57.87 33.28 58.01 33.68
  A 0.82 0.82 0.0 0 1 57.70 34.62
  L 51.77 38.76
  Q 46.63 40.24 41.22 42.10
  C 39.37 42.74 37.74 43.81 35.87 44.58
  Q 34.63 41.91 32.43 39.87
  L 36.32 42.03
  A 0.87 0.86 41.3 0 0 37.22 41.98
  C 42.83 38.02 47.85 36.84 54.55 35.06
  A 0.55 0.55 0.0 0 0 54.41 33.98
  L 48.47 33.98
  A 0.47 0.46 31.6 0 1 48.26 33.10
  Q 49.25 32.60 49.25 31.80
  A 0.85 0.85 0.0 0 1 49.70 31.05
  Q 50.19 30.80 50.47 30.47
  Q 52.28 29.62 54.29 29.98
  Z"
/>
<path fill="#323553" d="
  M 25.18 30.38
  Q 26.98 33.72 29.77 36.32
  L 30.27 37.21
  Q 29.21 37.32 28.89 37.89
  Q 26.30 42.45 24.19 49.84
  C 23.80 51.20 23.13 52.45 22.73 53.80
  Q 22.72 53.84 21.63 55.14
  Q 21.09 55.78 21.12 56.79
  C 20.96 49.20 20.37 40.59 22.19 33.19
  Q 23.05 29.69 25.18 30.38
  Z"
/>
<path fill="#ecd4ef" d="
  M 50.47 30.47
  Q 50.19 30.80 49.70 31.05
  A 0.85 0.85 0.0 0 0 49.25 31.80
  Q 49.25 32.60 48.26 33.10
  A 0.47 0.46 31.6 0 0 48.47 33.98
  L 54.41 33.98
  A 0.55 0.55 0.0 0 1 54.55 35.06
  C 47.85 36.84 42.83 38.02 37.22 41.98
  A 0.87 0.86 41.3 0 1 36.32 42.03
  L 32.43 39.87
  L 30.27 37.21
  L 29.77 36.32
  Q 39.79 32.47 50.47 30.47
  Z"
/>
<path fill="#20213b" d="
  M 30.27 37.21
  L 32.43 39.87
  Q 34.63 41.91 35.87 44.58
  L 21.86 58.83
  A 0.44 0.44 0.0 0 1 21.10 58.51
  L 21.12 56.79
  Q 21.09 55.78 21.63 55.14
  Q 22.72 53.84 22.73 53.80
  C 23.13 52.45 23.80 51.20 24.19 49.84
  Q 26.30 42.45 28.89 37.89
  Q 29.21 37.32 30.27 37.21
  Z"
/>
<path fill="#dc4fae" d="
  M 85.06 106.22
  Q 79.72 99.97 71.70 97.23
  L 78.06 88.53
  A 1.09 1.09 0.0 0 1 79.57 88.28
  Q 85.83 92.68 93.22 94.55
  A 0.61 0.61 0.0 0 1 93.55 95.52
  L 85.06 106.22
  Z"
/>
<path fill="#e293d4" d="
  M 137.72 90.46
  L 137.59 121.50
  L 137.64 122.71
  L 137.65 125.54
  L 137.66 126.71
  L 137.60 160.06
  L 0.39 160.09
  L 0.40 138.57
  C 17.51 144.36 32.14 140.03 47.20 131.46
  Q 53.38 133.23 59.52 134.97
  Q 62.27 135.75 69.84 136.65
  Q 71.33 144.35 71.00 151.72
  Q 70.97 152.21 72.15 154.64
  A 0.77 0.77 0.0 0 0 72.99 155.06
  Q 73.92 154.89 75.21 155.30
  A 0.52 0.52 0.0 0 0 75.88 154.82
  C 75.96 151.49 75.19 147.63 76.46 144.14
  A 2.39 2.30 -38.9 0 0 76.59 143.12
  Q 76.35 140.09 77.02 137.34
  Q 89.65 134.47 102.09 130.56
  Q 106.39 129.20 107.90 129.33
  C 111.91 129.68 116.51 131.89 119.76 133.51
  C 123.96 135.60 128.29 136.66 131.97 137.13
  A 0.71 0.71 0.0 0 0 132.75 136.54
  C 133.59 131.43 132.25 126.38 130.56 121.39
  A 1.98 1.94 -48.2 0 1 130.51 120.31
  Q 130.95 118.51 130.05 116.51
  Q 125.52 106.49 118.24 97.97
  Q 127.46 99.85 136.74 99.29
  A 0.56 0.56 0.0 0 0 137.27 98.76
  L 137.72 90.46
  Z"
/>
<path fill="#8c1b65" d="
  M 114.50 93.67
  L 118.24 97.97
  Q 125.52 106.49 130.05 116.51
  Q 130.95 118.51 130.51 120.31
  A 1.98 1.94 -48.2 0 0 130.56 121.39
  C 132.25 126.38 133.59 131.43 132.75 136.54
  A 0.71 0.71 0.0 0 1 131.97 137.13
  C 128.29 136.66 123.96 135.60 119.76 133.51
  C 116.51 131.89 111.91 129.68 107.90 129.33
  Q 106.39 129.20 102.09 130.56
  Q 89.65 134.47 77.02 137.34
  L 69.84 136.65
  Q 62.27 135.75 59.52 134.97
  Q 53.38 133.23 47.20 131.46
  C 43.96 130.51 41.27 130.37 38.90 127.29
  Q 47.07 126.51 51.50 126.87
  Q 60.42 127.57 65.55 129.27
  Q 70.64 130.95 76.18 133.09
  A 1.92 1.92 0.0 0 0 78.48 132.35
  L 82.07 126.84
  A 0.94 0.90 -81.8 0 1 82.56 126.46
  L 86.75 125.10
  A 1.00 0.99 45.5 0 1 87.35 125.11
  Q 92.07 126.79 94.80 127.31
  Q 97.45 127.83 97.83 124.82
  Q 98.27 121.30 100.67 116.09
  A 3.51 3.50 81.4 0 1 101.50 114.96
  C 103.74 112.95 107.48 109.24 109.12 105.87
  C 110.39 103.27 110.25 98.60 110.50 95.37
  A 1.12 1.11 74.3 0 1 110.95 94.56
  Q 112.01 93.78 114.50 93.67
  Z"
/>
<path fill="#e580c8" d="
  M 85.06 106.22
  L 82.65 108.89
  A 1.80 1.79 -52.4 0 1 80.34 109.20
  L 69.62 102.22
  A 1.14 1.12 22.5 0 1 69.13 101.07
  Q 69.53 99.06 71.70 97.23
  Q 79.72 99.97 85.06 106.22
  Z"
/>
<path fill="#e4addf" d="
  M 25.80 104.66
  Q 26.07 106.18 26.55 106.49
  L 30.32 117.25
  A 5.77 5.77 0.0 0 0 30.96 118.53
  Q 34.66 124.01 38.90 127.29
  C 41.27 130.37 43.96 130.51 47.20 131.46
  C 32.14 140.03 17.51 144.36 0.40 138.57
  L 0.39 106.21
  Q 13.43 107.77 25.80 104.66
  Z"
/>
<path fill="#dc4fae" d="
  M 137.64 122.71
  L 137.59 121.50
  L 137.64 122.71
  Z"
/>
<path fill="#dc4fae" d="
  M 137.65 125.54
  L 137.66 126.71
  L 137.65 125.54
  Z"
/>
<path fill="#f0e2f3" d="
  M 77.02 137.34
  Q 76.35 140.09 76.59 143.12
  A 2.39 2.30 -38.9 0 1 76.46 144.14
  C 75.19 147.63 75.96 151.49 75.88 154.82
  A 0.52 0.52 0.0 0 1 75.21 155.30
  Q 73.92 154.89 72.99 155.06
  A 0.77 0.77 0.0 0 1 72.15 154.64
  Q 70.97 152.21 71.00 151.72
  Q 71.33 144.35 69.84 136.65
  L 77.02 137.34
  Z"
/>
<path fill="#32082f" fill-opacity="0.439" d="
  M 0.39 160.09
  L 137.60 160.06
  Q 137.81 160.36 137.48 161.00
  L 136.92 161.00
  Q 136.88 160.88 136.83 160.76
  A 0.06 0.04 -7.0 0 0 136.78 160.73
  L 0.00 160.76
  L 0.00 160.12
  Q 0.65 159.78 0.39 160.09
  Z"
/>
<path fill="#fae3f9" fill-opacity="0.541" d="
  M 136.92 161.00
  L 0.00 161.00
  L 0.00 160.76
  L 136.78 160.73
  A 0.06 0.04 -7.0 0 1 136.83 160.76
  Q 136.88 160.88 136.92 161.00
  Z"
/>
</svg>
