<?xml version="1.0" encoding="UTF-8" standalone="no"?>
<!DOCTYPE svg PUBLIC "-//W3C//DTD SVG 1.1//EN" "http://www.w3.org/Graphics/SVG/1.1/DTD/svg11.dtd">
<svg xmlns="http://www.w3.org/2000/svg" version="1.1" viewBox="0.00 0.00 276.00 320.00">
<g stroke-width="2.00" fill="none" stroke-linecap="butt">
<path stroke="#ebc5e8" vector-effect="non-scaling-stroke" d="
  M 0.70 0.00
  L 0.82 40.69"
/>
<path stroke="#e5aee0" vector-effect="non-scaling-stroke" d="
  M 0.82 40.69
  Q 0.17 40.67 0.21 39.74
  Q 0.41 34.41 0.00 29.12"
/>
<path stroke="#e5aee0" vector-effect="non-scaling-stroke" d="
  M 0.00 20.61
  L 0.00 1.15"
/>
<path stroke="#f0e0f2" vector-effect="non-scaling-stroke" d="
  M 196.24 0.00
  C 210.28 1.93 229.69 2.82 229.42 22.49
  Q 229.29 31.96 225.36 43.35
  Q 219.04 61.67 208.45 75.86
  C 205.78 79.45 200.11 86.10 195.75 85.82
  C 191.83 85.57 189.78 80.69 189.05 77.88
  Q 185.19 62.86 184.20 59.63
  Q 174.21 27.16 143.18 14.59
  C 129.51 9.05 116.24 5.45 101.47 9.07
  Q 83.17 13.56 68.32 24.09
  C 56.79 32.27 47.20 44.30 39.68 56.82
  C 31.86 69.83 27.91 84.96 30.44 99.90
  C 33.94 120.64 52.39 122.99 66.94 111.51
  Q 71.24 108.10 82.11 96.12
  Q 87.69 89.97 94.34 87.83
  C 97.40 86.84 100.96 88.43 100.79 92.09
  C 100.53 97.27 96.15 103.02 92.68 107.10
  C 85.80 115.18 76.62 124.49 69.99 133.07
  C 62.15 143.22 55.59 152.51 45.16 159.03
  Q 31.52 167.57 16.32 163.11
  Q 9.39 161.08 1.85 158.53
  A 0.72 0.71 8.8 0 1 1.36 157.87
  Q 1.07 148.86 1.03 138.25
  Q 0.90 103.09 1.11 51.76
  C 1.12 49.06 0.73 45.78 0.70 42.79"
/>
<path stroke="#ecceec" vector-effect="non-scaling-stroke" d="
  M 0.70 42.79
  L 0.82 40.69"
/>
<path stroke="#edd7ef" vector-effect="non-scaling-stroke" d="
  M 253.81 0.00
  C 256.11 13.07 252.88 24.71 248.44 37.45
  Q 233.14 81.42 200.59 114.60
  Q 183.03 132.51 158.38 140.72
  Q 135.63 148.29 112.18 153.06"
/>
<path stroke="#be7cac" vector-effect="non-scaling-stroke" d="
  M 112.18 153.06
  Q 120.29 142.38 126.09 138.08
  Q 127.42 137.09 139.97 127.70
  C 142.77 125.60 145.97 122.58 147.77 120.52
  Q 158.94 107.74 167.10 97.58
  A 7.68 7.49 -14.2 0 0 168.05 96.03
  Q 169.37 93.10 170.07 90.29
  Q 173.27 77.51 174.69 66.49
  Q 176.06 55.83 171.21 47.17"
/>
<path stroke="#dd89c5" vector-effect="non-scaling-stroke" d="
  M 171.21 47.17
  Q 166.33 36.04 157.63 27.10
  Q 150.35 19.63 142.07 16.34
  Q 133.31 12.87 123.40 12.90"
/>
<path stroke="#eaaedc" vector-effect="non-scaling-stroke" d="
  M 123.40 12.90
  Q 112.92 13.62 104.11 17.60
  Q 100.53 19.21 97.32 22.91"
/>
<path stroke="#877f96" vector-effect="non-scaling-stroke" d="
  M 97.32 22.91
  Q 90.87 25.62 83.78 28.52
  Q 81.55 29.43 81.76 31.46"
/>
<path stroke="#ede5f3" vector-effect="non-scaling-stroke" d="
  M 81.76 31.46
  Q 81.30 31.57 81.07 32.07"
/>
<path stroke="#9089a2" vector-effect="non-scaling-stroke" d="
  M 81.07 32.07
  Q 81.36 30.68 80.82 30.14
  A 0.58 0.56 -33.3 0 0 80.18 30.02
  L 64.16 37.01
  A 1.90 1.89 -20.0 0 0 63.09 39.30
  L 66.53 50.77"
/>
<path stroke="#ede5f3" vector-effect="non-scaling-stroke" d="
  M 66.53 50.77
  Q 57.38 54.43 49.58 60.04"
/>
<path stroke="#9089a2" vector-effect="non-scaling-stroke" d="
  M 49.58 60.04
  Q 47.08 60.39 45.53 61.70
  Q 44.05 62.96 43.84 65.58
  C 43.24 73.28 42.07 79.99 42.04 88.48
  Q 42.00 99.64 42.04 110.80"
/>
<path stroke="#877f96" vector-effect="non-scaling-stroke" d="
  M 42.04 110.80
  L 41.96 116.21
  A 0.63 0.63 0.0 0 0 43.03 116.66
  L 72.05 87.75"
/>
<path stroke="#e4dbea" vector-effect="non-scaling-stroke" d="
  M 72.05 87.75
  Q 81.53 83.30 86.37 81.90
  Q 95.07 79.38 102.88 76.88"
/>
<path stroke="#be7cac" vector-effect="non-scaling-stroke" d="
  M 102.88 76.88
  Q 112.49 75.13 118.09 72.38
  Q 129.86 66.59 134.63 64.36
  Q 136.66 63.41 139.44 62.78"
/>
<path stroke="#dd89c5" vector-effect="non-scaling-stroke" d="
  M 139.44 62.78
  Q 143.80 63.33 146.78 67.05"
/>
<path stroke="#e596cf" vector-effect="non-scaling-stroke" d="
  M 146.78 67.05
  Q 146.62 72.77 143.34 79.05"
/>
<path stroke="#eaaedc" vector-effect="non-scaling-stroke" d="
  M 143.34 79.05
  Q 139.81 86.33 137.73 88.73
  Q 129.52 98.20 118.37 104.62
  Q 107.87 110.67 100.36 117.64
  Q 95.47 122.18 81.20 136.15
  Q 75.80 141.43 72.30 146.76
  Q 64.95 157.96 59.27 168.72
  C 57.00 173.02 55.84 178.36 54.80 183.25"
/>
<path stroke="#ecd2ed" vector-effect="non-scaling-stroke" d="
  M 54.80 183.25
  C 44.76 188.05 34.94 191.42 23.75 190.69
  Q 14.37 190.07 1.69 186.03
  A 0.63 0.61 -82.3 0 1 1.26 185.45
  L 0.78 152.04"
/>
<path stroke="#eacaea" vector-effect="non-scaling-stroke" d="
  M 0.78 152.04
  L 0.66 114.31"
/>
<path stroke="#e8b8e2" vector-effect="non-scaling-stroke" d="
  M 0.66 114.31
  L 0.62 97.68"
/>
<path stroke="#eacaea" vector-effect="non-scaling-stroke" d="
  M 0.62 97.68
  Q 0.94 96.35 0.71 94.79"
/>
<path stroke="#e8b8e2" vector-effect="non-scaling-stroke" d="
  M 0.71 94.79
  Q 0.87 94.12 0.69 93.46"
/>
<path stroke="#eacaea" vector-effect="non-scaling-stroke" d="
  M 0.69 93.46
  Q 0.77 93.22 0.64 93.09"
/>
<path stroke="#e8b8e2" vector-effect="non-scaling-stroke" d="
  M 0.64 93.09
  L 0.63 83.42"
/>
<path stroke="#eacaea" vector-effect="non-scaling-stroke" d="
  M 0.63 83.42
  Q 0.69 83.36 0.76 83.30"
/>
<path stroke="#e8b8e2" vector-effect="non-scaling-stroke" d="
  M 0.76 83.30
  L 0.73 81.70"
/>
<path stroke="#eacaea" vector-effect="non-scaling-stroke" d="
  M 0.73 81.70
  L 0.70 42.79"
/>
<path stroke="#ebccec" vector-effect="non-scaling-stroke" d="
  M 274.46 0.00
  C 266.42 45.47 245.32 85.72 216.00 120.96
  Q 206.61 132.26 196.13 138.71
  C 181.94 147.45 165.17 151.43 148.75 154.97"
/>
<path stroke="#dc83c4" vector-effect="non-scaling-stroke" d="
  M 148.75 154.97
  Q 143.09 155.04 137.34 155.02
  C 135.07 155.01 133.16 155.51 131.35 156.59
  Q 120.61 163.05 109.35 171.30"
/>
<path stroke="#bd77ab" vector-effect="non-scaling-stroke" d="
  M 109.35 171.30
  Q 104.66 174.72 101.85 179.40
  Q 98.96 184.22 97.82 185.56
  A 0.39 0.39 0.0 0 1 97.13 185.33
  C 96.75 179.04 99.42 171.38 101.95 166.52
  C 104.28 162.06 108.61 157.25 112.18 153.06"
/>
<path stroke="#e8bfe7" vector-effect="non-scaling-stroke" d="
  M 275.14 0.00
  Q 275.28 0.14 275.43 0.28"
/>
<path stroke="#eeb8ee" stroke-opacity="0.741" vector-effect="non-scaling-stroke" d="
  M 275.43 0.28
  L 275.42 41.25"
/>
<path stroke="#e8bfe7" vector-effect="non-scaling-stroke" d="
  M 275.42 41.25
  Q 275.39 41.35 275.36 41.46"
/>
<path stroke="#eeb8ee" stroke-opacity="0.741" vector-effect="non-scaling-stroke" d="
  M 275.36 41.46
  L 275.33 43.04"
/>
<path stroke="#e8bfe7" vector-effect="non-scaling-stroke" d="
  M 275.33 43.04
  Q 275.30 43.34 275.39 43.55"
/>
<path stroke="#eeb8ee" stroke-opacity="0.741" vector-effect="non-scaling-stroke" d="
  M 275.39 43.55
  L 275.29 85.73"
/>
<path stroke="#e8bfe7" vector-effect="non-scaling-stroke" d="
  M 275.29 85.73
  Q 274.72 74.96 274.88 64.14
  Q 274.95 66.87 274.76 69.73
  A 1.87 1.80 64.9 0 1 274.44 70.67
  Q 260.59 90.98 243.98 118.09
  Q 238.37 127.23 231.89 135.85
  C 221.11 150.19 207.62 156.70 190.53 161.56"
/>
<path stroke="#db7ec2" vector-effect="non-scaling-stroke" d="
  M 190.53 161.56
  C 184.98 158.54 179.36 154.98 173.00 155.03
  Q 160.93 155.12 148.75 154.97"
/>
<path stroke="#e4a5dc" vector-effect="non-scaling-stroke" d="
  M 274.37 320.00
  Q 274.58 319.70 275.41 319.70"
/>
<path stroke="#ecadea" stroke-opacity="0.741" vector-effect="non-scaling-stroke" d="
  M 275.41 319.70
  L 275.36 127.32"
/>
<path stroke="#ecadea" stroke-opacity="0.741" vector-effect="non-scaling-stroke" d="
  M 275.36 127.32
  L 275.38 123.65
  A 0.03 0.03 0.0 0 0 275.32 123.64
  Q 275.02 125.56 275.36 127.32"
/>
<path stroke="#ecadea" stroke-opacity="0.741" vector-effect="non-scaling-stroke" d="
  M 275.36 127.32
  Q 275.26 127.39 275.16 127.47
  A 0.10 0.10 0.0 0 0 275.13 127.54
  L 275.20 150.46"
/>
<path stroke="#e69cd6" vector-effect="non-scaling-stroke" d="
  M 275.20 150.46
  L 275.19 154.25"
/>
<path stroke="#ecadea" stroke-opacity="0.741" vector-effect="non-scaling-stroke" d="
  M 275.19 154.25
  L 275.17 181.70"
/>
<path stroke="#e5aee0" vector-effect="non-scaling-stroke" d="
  M 275.17 181.70
  L 274.94 188.78
  A 0.11 0.10 46.8 0 1 274.73 188.77
  L 274.73 184.84
  A 0.57 0.56 -4.8 0 0 274.07 184.29
  Q 249.54 188.46 224.98 183.24"
/>
<path stroke="#d976bf" vector-effect="non-scaling-stroke" d="
  M 224.98 183.24
  Q 208.53 171.39 190.53 161.56"
/>
<path stroke="#ecadea" stroke-opacity="0.741" vector-effect="non-scaling-stroke" d="
  M 275.29 85.73
  Q 275.39 104.36 275.38 123.06
  Q 275.38 123.36 275.38 123.19
  Q 275.45 83.37 275.39 43.55"
/>
<path stroke="#ecadea" stroke-opacity="0.741" vector-effect="non-scaling-stroke" d="
  M 275.33 43.04
  Q 275.50 42.25 275.36 41.46"
/>
<path stroke="#ecadea" stroke-opacity="0.741" vector-effect="non-scaling-stroke" d="
  M 275.42 41.25
  L 275.43 0.28"
/>
<path stroke="#d95bb0" vector-effect="non-scaling-stroke" d="
  M 123.40 12.90
  Q 125.26 14.42 127.44 15.32
  A 0.52 0.40 -7.6 0 1 127.58 15.40
  L 140.93 25.26
  A 1.92 1.86 3.9 0 1 141.46 25.85
  Q 142.78 28.16 143.31 31.50
  Q 144.11 36.52 145.17 39.94
  A 0.53 0.52 72.3 0 1 144.84 40.59
  Q 141.53 41.69 135.57 44.07
  Q 134.24 44.60 126.71 48.44
  Q 121.68 51.00 116.14 52.76"
/>
<path stroke="#dfadd6" vector-effect="non-scaling-stroke" d="
  M 116.14 52.76
  Q 123.73 43.12 129.65 33.07
  A 3.90 3.64 84.2 0 1 130.19 32.36
  Q 131.41 31.12 131.90 29.85"
/>
<path stroke="#e068ba" vector-effect="non-scaling-stroke" d="
  M 131.90 29.85
  Q 132.58 29.66 132.61 29.60
  A 1.10 1.09 28.9 0 0 132.17 28.10
  C 126.93 25.29 122.34 22.74 116.20 21.84
  A 2.14 2.00 -28.6 0 1 115.85 21.75
  L 112.92 20.79
  A 0.62 0.62 0.0 0 1 112.74 19.70
  L 116.77 16.66
  A 0.41 0.41 0.0 0 0 116.60 15.93
  Q 115.98 15.82 115.09 16.37
  Q 110.86 19.03 106.71 21.98"
/>
<path stroke="#835181" vector-effect="non-scaling-stroke" d="
  M 106.71 21.98
  Q 106.41 21.07 105.97 20.57
  A 0.83 0.82 59.6 0 0 105.11 20.34
  L 97.32 22.91"
/>
<path stroke="#ad2980" vector-effect="non-scaling-stroke" d="
  M 171.21 47.17
  L 170.94 66.91
  A 13.82 13.37 52.5 0 1 170.63 69.61
  Q 168.90 77.54 167.77 80.81
  Q 165.49 87.41 164.28 91.41
  C 163.42 94.25 161.74 97.71 159.76 99.02
  C 154.98 102.19 148.88 105.27 143.60 109.26
  Q 137.52 113.86 137.16 114.15
  C 133.60 117.02 129.28 121.53 126.50 126.16
  Q 124.36 129.72 122.60 132.49
  A 4.16 3.99 -5.6 0 1 121.82 133.40
  Q 118.86 135.96 114.35 140.10
  C 111.68 142.55 109.95 145.30 107.88 147.63
  C 103.87 152.16 100.06 159.25 97.31 163.05
  Q 96.39 164.32 91.82 169.99
  Q 88.72 173.83 89.40 179.80
  A 3.14 3.08 -61.9 0 0 89.71 180.86
  C 92.03 185.50 94.20 189.64 95.58 194.16
  Q 96.28 196.42 97.14 198.25
  A 0.54 0.54 0.0 0 0 98.16 198.14
  C 99.72 190.85 101.56 185.78 105.34 178.97
  Q 107.40 175.28 109.35 171.30"
/>
<path stroke="#d86dbb" vector-effect="non-scaling-stroke" d="
  M 224.98 183.24
  L 229.92 187.64"
/>
<path stroke="#ad2980" vector-effect="non-scaling-stroke" d="
  M 229.92 187.64
  L 220.81 187.90
  A 0.86 0.85 86.0 0 0 219.99 188.85
  Q 220.49 193.42 220.82 196.99
  Q 221.15 200.48 219.74 208.51
  Q 219.30 211.04 217.38 213.13
  Q 206.97 224.51 202.67 228.76
  A 5.29 4.99 -7.8 0 0 202.08 229.49
  C 198.29 235.33 196.80 241.99 194.83 250.08
  Q 194.34 252.10 193.40 253.48
  A 1.71 1.70 -62.5 0 1 191.38 254.12
  Q 184.42 251.52 176.75 249.78
  Q 174.09 249.18 170.35 247.61
  Q 165.87 245.73 164.16 244.90
  C 162.25 243.98 157.42 242.46 155.83 244.87
  A 0.52 0.51 -60.8 0 0 156.04 245.62
  L 165.46 250.04
  A 0.57 0.56 -56.6 0 1 165.64 250.93
  C 161.85 255.12 159.43 259.99 156.03 265.21
  A 1.40 1.38 13.4 0 1 155.01 265.83
  Q 153.45 265.97 152.11 265.41
  Q 139.89 260.28 131.76 257.17
  C 124.97 254.57 116.09 253.63 109.48 253.83
  Q 104.45 253.99 100.05 253.39
  C 94.81 252.67 89.01 253.09 83.41 252.51
  Q 79.58 252.12 76.33 251.35
  Q 76.00 251.27 75.71 251.58
  Q 75.52 251.78 75.72 252.26"
/>
<path stroke="#d86dbb" vector-effect="non-scaling-stroke" d="
  M 75.72 252.26
  Q 68.67 246.01 62.73 238.47"
/>
<path stroke="#d976bf" vector-effect="non-scaling-stroke" d="
  M 62.73 238.47
  Q 61.34 236.26 60.44 233.60
  Q 57.88 226.03 55.08 218.38"
/>
<path stroke="#db7ec2" vector-effect="non-scaling-stroke" d="
  M 55.08 218.38
  L 52.61 211.03"
/>
<path stroke="#d95bb0" vector-effect="non-scaling-stroke" d="
  M 52.61 211.03
  L 65.72 204.25
  A 1.82 1.69 2.0 0 0 66.34 203.71
  Q 68.44 200.78 69.23 197.69
  Q 73.79 179.69 77.45 168.45
  Q 77.79 167.40 80.03 165.47
  A 7.26 7.24 86.0 0 0 81.40 163.89
  Q 87.29 154.74 93.37 147.25
  C 95.90 144.15 98.08 140.55 100.36 137.86
  Q 105.03 132.33 108.97 127.82
  Q 113.41 122.74 115.80 119.50
  Q 120.24 113.47 122.71 111.15
  A 4.90 4.64 5.3 0 1 123.50 110.53
  Q 131.28 105.44 135.01 102.76
  Q 141.03 98.44 143.02 96.27
  Q 149.51 89.20 151.38 79.85
  A 0.24 0.24 0.0 0 1 151.83 79.79
  L 153.30 82.72
  A 0.72 0.72 0.0 0 0 154.55 82.79
  Q 163.99 68.11 166.89 52.53
  Q 167.00 51.96 166.78 51.45
  A 0.43 0.43 0.0 0 0 166.19 51.24
  L 149.66 59.50
  A 0.94 0.94 0.0 0 0 149.33 60.90
  L 152.43 65.04"
/>
<path stroke="#d442a3" vector-effect="non-scaling-stroke" d="
  M 152.43 65.04
  Q 152.78 65.74 152.64 66.32
  A 0.75 0.74 5.6 0 1 151.94 66.89
  L 146.78 67.05"
/>
<path stroke="#ad2980" vector-effect="non-scaling-stroke" d="
  M 139.44 62.78
  L 141.13 54.78
  A 0.48 0.47 -12.6 0 0 140.38 54.31
  L 128.66 63.15
  A 4.14 4.10 25.0 0 1 126.33 63.98
  L 121.11 64.20
  A 2.18 2.08 -36.1 0 1 120.43 64.11
  Q 116.07 62.80 111.30 62.44"
/>
<path stroke="#d387bf" vector-effect="non-scaling-stroke" d="
  M 111.30 62.44
  Q 110.15 62.35 108.88 60.23
  A 1.56 1.56 0.0 0 1 109.25 58.21
  L 116.14 52.76"
/>
<path stroke="#d95bb0" vector-effect="non-scaling-stroke" d="
  M 143.71 192.81
  L 137.69 201.00
  A 1.22 1.22 0.0 0 0 138.03 202.75
  L 162.95 218.09
  A 1.43 1.42 -55.9 0 0 164.84 217.72
  L 170.16 210.62"
/>
<path stroke="#d442a3" vector-effect="non-scaling-stroke" d="
  M 170.16 210.62
  L 187.66 189.74
  A 1.07 1.07 0.0 0 0 187.40 188.14
  L 183.21 185.55
  A 0.88 0.88 0.0 0 0 182.00 185.84
  L 180.32 188.57
  A 1.10 1.09 35.2 0 1 178.70 188.85
  Q 168.69 180.70 157.20 174.73
  A 1.14 1.14 0.0 0 0 155.73 175.10
  L 143.71 192.81"
/>
<path stroke="#e068ba" vector-effect="non-scaling-stroke" d="
  M 170.16 210.62
  Q 159.10 199.42 143.71 192.81"
/>
<path stroke="#da94c9" vector-effect="non-scaling-stroke" d="
  M 131.90 29.85
  Q 125.42 26.46 121.68 25.57
  Q 115.74 24.16 107.27 25.00"
/>
<path stroke="#7e3874" vector-effect="non-scaling-stroke" d="
  M 107.27 25.00
  L 106.71 21.98"
/>
<path stroke="#7d7d90" vector-effect="non-scaling-stroke" d="
  M 107.27 25.00
  L 107.18 32.70
  A 0.32 0.32 0.0 0 0 107.64 32.98
  Q 112.97 30.24 118.75 33.11"
/>
<path stroke="#868798" vector-effect="non-scaling-stroke" d="
  M 118.75 33.11
  Q 119.03 33.41 118.67 33.72
  A 0.48 0.47 40.0 0 1 118.09 33.77
  Q 118.01 33.72 117.92 33.62
  A 0.26 0.26 0.0 0 0 117.46 33.72
  Q 115.36 41.71 106.99 40.91
  A 0.82 0.81 12.5 0 0 106.13 41.45
  Q 105.89 42.14 104.67 45.46
  C 103.01 49.97 98.51 51.91 94.00 52.62
  Q 90.28 53.20 88.34 50.60
  C 84.22 45.07 83.25 38.89 81.76 31.46"
/>
<path stroke="#292b48" vector-effect="non-scaling-stroke" d="
  M 91.05 49.58
  C 103.40 48.91 103.35 33.52 102.80 24.62
  A 0.84 0.84 0.0 0 0 101.59 23.91
  Q 93.61 27.84 84.97 30.13
  A 0.84 0.84 0.0 0 0 84.34 30.94
  Q 84.34 40.96 90.28 49.21
  A 0.92 0.91 70.3 0 0 91.05 49.58"
/>
<path stroke="#868798" vector-effect="non-scaling-stroke" d="
  M 114.0020 34.4940
  A 2.39 1.91 -13.7 0 0 111.2276 33.2043
  A 2.39 1.91 -13.7 0 0 109.3580 35.6260
  A 2.39 1.91 -13.7 0 0 112.1324 36.9157
  A 2.39 1.91 -13.7 0 0 114.0020 34.4940"
/>
<path stroke="#b47ba6" vector-effect="non-scaling-stroke" d="
  M 111.30 62.44
  L 117.02 66.27
  A 0.35 0.34 44.2 0 1 117.03 66.84
  L 102.88 76.88"
/>
<path stroke="#7d7d90" vector-effect="non-scaling-stroke" d="
  M 72.05 87.75
  L 59.63 72.50"
/>
<path stroke="#86879c" vector-effect="non-scaling-stroke" d="
  M 59.63 72.50
  Q 59.76 72.35 59.45 71.86"
/>
<path stroke="#e3e3ed" vector-effect="non-scaling-stroke" d="
  M 59.45 71.86
  Q 67.27 68.35 74.59 66.38
  C 88.76 62.56 97.80 60.94 106.93 56.66
  C 110.36 55.05 111.77 52.70 113.77 49.44
  C 116.45 45.07 120.80 42.29 123.48 37.95
  Q 125.39 34.84 126.65 30.91
  A 0.42 0.42 0.0 0 0 126.30 30.36
  L 121.83 29.80
  A 1.05 1.04 21.6 0 0 120.87 30.21
  L 118.75 33.11"
/>
<path stroke="#e4a5dc" vector-effect="non-scaling-stroke" d="
  M 0.73 81.70
  Q 0.49 82.43 0.76 83.30"
/>
<path stroke="#e4a5dc" vector-effect="non-scaling-stroke" d="
  M 0.63 83.42
  L 0.64 93.09"
/>
<path stroke="#e4a5dc" vector-effect="non-scaling-stroke" d="
  M 0.69 93.46
  L 0.71 94.79"
/>
<path stroke="#e4a5dc" vector-effect="non-scaling-stroke" d="
  M 0.62 97.68
  L 0.66 114.31"
/>
<path stroke="#e8bfe7" vector-effect="non-scaling-stroke" d="
  M 0.78 152.04
  L 0.86 234.68
  A 0.13 0.12 -2.2 0 0 1.00 234.80
  A 0.15 0.15 0.0 0 0 1.13 234.65
  L 1.12 232.85
  A 0.62 0.62 0.0 0 1 1.75 232.22
  C 14.30 232.47 26.52 231.84 38.36 227.39
  Q 45.39 224.76 55.08 218.38"
/>
<path stroke="#e5aee0" vector-effect="non-scaling-stroke" d="
  M 62.73 238.47
  Q 51.47 247.30 41.76 251.04
  C 28.83 256.02 15.30 257.35 1.54 257.86
  A 0.50 0.50 0.0 0 1 1.02 257.38
  L 0.56 242.71"
/>
<path stroke="#ecadea" stroke-opacity="0.741" vector-effect="non-scaling-stroke" d="
  M 0.56 242.71
  L 0.46 201.08
  A 0.02 0.02 0.0 0 0 0.43 201.06
  Q 0.42 201.07 0.41 201.08
  A 0.17 0.15 -22.5 0 0 0.35 201.20
  L 0.35 267.05"
/>
<path stroke="#e5aee0" vector-effect="non-scaling-stroke" d="
  M 0.35 267.05
  Q 0.33 267.12 0.32 267.19"
/>
<path stroke="#ecadea" stroke-opacity="0.741" vector-effect="non-scaling-stroke" d="
  M 0.32 267.19
  L 0.31 269.06"
/>
<path stroke="#e5aee0" vector-effect="non-scaling-stroke" d="
  M 0.31 269.06
  Q 0.33 269.13 0.34 269.21"
/>
<path stroke="#ecadea" stroke-opacity="0.741" vector-effect="non-scaling-stroke" d="
  M 0.34 269.21
  Q 0.30 269.65 0.43 270.04"
/>
<path stroke="#e5aee0" vector-effect="non-scaling-stroke" d="
  M 0.43 270.04
  Q 0.41 270.12 0.38 270.20"
/>
<path stroke="#ecadea" stroke-opacity="0.741" vector-effect="non-scaling-stroke" d="
  M 0.38 270.20
  L 0.38 303.00"
/>
<path stroke="#e5aee0" vector-effect="non-scaling-stroke" d="
  M 0.38 303.00
  Q 0.39 303.11 0.40 303.21"
/>
<path stroke="#ecadea" stroke-opacity="0.741" vector-effect="non-scaling-stroke" d="
  M 0.40 303.21
  L 0.32 313.09"
/>
<path stroke="#e5aee0" vector-effect="non-scaling-stroke" d="
  M 0.32 313.09
  Q 0.29 313.14 0.27 313.19"
/>
<path stroke="#ecadea" stroke-opacity="0.741" vector-effect="non-scaling-stroke" d="
  M 0.27 313.19
  Q 0.08 314.10 0.28 315.01"
/>
<path stroke="#e5aee0" vector-effect="non-scaling-stroke" d="
  M 0.28 315.01
  Q 0.30 315.09 0.33 315.18"
/>
<path stroke="#ecadea" stroke-opacity="0.741" vector-effect="non-scaling-stroke" d="
  M 0.33 315.18
  L 0.22 319.53
  A 0.07 0.07 0.0 0 0 0.28 319.60
  Q 0.40 319.61 0.55 319.50"
/>
<path stroke="#e4a5dc" vector-effect="non-scaling-stroke" d="
  M 0.55 319.50
  L 1.12 320.00"
/>
<path stroke="#e4a5dc" vector-effect="non-scaling-stroke" d="
  M 0.43 197.82
  Q 0.58 197.82 0.51 197.52
  Q 0.48 197.40 0.37 197.43
  A 0.20 0.20 0.0 0 0 0.43 197.82"
/>
<path stroke="#ecadea" stroke-opacity="0.741" vector-effect="non-scaling-stroke" d="
  M 0.12 199.72
  Q -0.01 200.40 0.05 200.52
  A 0.33 0.33 0.0 0 0 0.66 200.42
  Q 0.75 199.92 0.64 199.66
  A 0.28 0.27 -51.4 0 0 0.12 199.72"
/>
<path stroke="#8f91a5" vector-effect="non-scaling-stroke" d="
  M 59.45 71.86
  L 49.58 60.04"
/>
<path stroke="#8f91a5" vector-effect="non-scaling-stroke" d="
  M 66.53 50.77
  L 80.37 44.85
  A 1.05 1.04 78.5 0 0 81.00 43.89
  L 81.07 32.07"
/>
<path stroke="#e7a4d9" vector-effect="non-scaling-stroke" d="
  M 52.61 211.03
  Q 51.10 209.35 51.37 206.27
  Q 52.29 195.94 54.80 183.25"
/>
<path stroke="#e068ba" vector-effect="non-scaling-stroke" d="
  M 143.34 79.05
  Q 149.74 74.27 152.83 67.14
  A 2.26 2.25 -32.3 0 0 153.03 66.26
  Q 153.09 64.86 152.43 65.04"
/>
<path stroke="#292b48" vector-effect="non-scaling-stroke" d="
  M 59.63 72.50
  C 52.55 83.13 49.34 95.12 45.60 107.24
  Q 44.84 109.68 42.04 110.80"
/>
<path stroke="#e995df" stroke-opacity="0.741" vector-effect="non-scaling-stroke" d="
  M 275.41 319.70
  L 275.24 272.69"
/>
<path stroke="#b04496" stroke-opacity="0.741" vector-effect="non-scaling-stroke" d="
  M 275.24 272.69
  L 275.20 267.56"
/>
<path stroke="#e995df" stroke-opacity="0.741" vector-effect="non-scaling-stroke" d="
  M 275.20 267.56
  L 275.27 216.95"
/>
<path stroke="#eaa1e5" stroke-opacity="0.741" vector-effect="non-scaling-stroke" d="
  M 275.27 216.95
  L 275.17 181.70"
/>
<path stroke="#eb88d7" stroke-opacity="0.741" vector-effect="non-scaling-stroke" d="
  M 275.19 154.25
  L 275.20 150.46"
/>
<path stroke="#e39cd8" vector-effect="non-scaling-stroke" d="
  M 275.27 216.95
  L 274.80 222.42
  A 0.03 0.03 0.0 0 1 274.75 222.43
  Q 274.74 222.40 274.71 222.37
  A 0.33 0.10 -86.2 0 1 274.65 222.11
  L 274.59 216.96
  A 0.93 0.93 0.0 0 0 274.07 216.14
  L 240.27 199.56"
/>
<path stroke="#b961a2" vector-effect="non-scaling-stroke" d="
  M 240.27 199.56
  Q 235.44 192.91 229.92 187.64"
/>
<path stroke="#b8589e" vector-effect="non-scaling-stroke" d="
  M 240.27 199.56
  Q 247.94 209.42 254.20 220.17
  C 258.02 226.72 260.42 232.93 262.82 239.97
  A 0.43 0.43 0.0 0 1 262.18 240.47
  Q 260.74 239.55 259.70 238.09
  A 0.15 0.15 0.0 0 0 259.50 238.05
  L 259.49 238.05
  A 0.19 0.18 63.6 0 0 259.42 238.29
  Q 266.55 254.48 266.63 272.21
  A 0.72 0.72 0.0 0 1 266.03 272.92
  C 265.47 273.01 264.06 272.29 263.25 272.24
  Q 256.57 271.87 253.23 271.29
  C 248.26 270.42 243.31 268.49 237.78 265.43
  Q 227.21 259.57 215.52 257.34
  A 7.88 7.80 -47.8 0 0 211.78 257.54
  Q 201.83 260.56 191.86 263.72
  Q 186.05 265.56 173.04 268.87
  Q 163.61 271.26 154.24 274.16"
/>
<path stroke="#b47ba6" vector-effect="non-scaling-stroke" d="
  M 154.24 274.16
  Q 151.85 271.99 149.21 272.31"
/>
<path stroke="#bd85ae" vector-effect="non-scaling-stroke" d="
  M 149.21 272.31
  L 140.51 273.15"
/>
<path stroke="#b8589e" vector-effect="non-scaling-stroke" d="
  M 140.51 273.15
  Q 137.98 271.48 134.75 271.26
  Q 128.74 270.84 124.12 270.13
  Q 120.24 269.54 113.77 267.53
  Q 99.98 263.24 86.03 259.37"
/>
<path stroke="#b961a2" vector-effect="non-scaling-stroke" d="
  M 86.03 259.37
  Q 79.92 257.52 75.72 252.26"
/>
<path stroke="#b8589e" vector-effect="non-scaling-stroke" d="
  M 275.20 267.56
  L 275.24 272.69"
/>
<path stroke="#e995df" stroke-opacity="0.741" vector-effect="non-scaling-stroke" d="
  M 0.55 319.50
  L 0.63 318.28"
/>
<path stroke="#e39cd8" vector-effect="non-scaling-stroke" d="
  M 0.63 318.28
  L 0.80 295.37
  A 1.02 1.00 74.0 0 1 1.24 294.55
  Q 11.12 287.91 23.40 286.64
  C 35.22 285.41 51.99 284.32 65.69 278.68
  C 74.74 274.95 80.81 267.67 86.03 259.37"
/>
<path stroke="#e7c0e5" vector-effect="non-scaling-stroke" d="
  M 140.51 273.15
  L 143.10 308.30
  A 0.75 0.75 0.0 0 0 143.61 308.97
  Q 146.33 309.92 149.31 309.92"
/>
<path stroke="#deb6dc" vector-effect="non-scaling-stroke" d="
  M 149.31 309.92
  Q 150.43 309.94 150.72 308.43
  Q 152.80 297.47 153.08 285.28
  Q 153.14 282.61 153.58 279.72
  Q 154.04 276.77 154.24 274.16"
/>
<path stroke="#eaa1e5" stroke-opacity="0.741" vector-effect="non-scaling-stroke" d="
  M 0.56 242.71
  L 0.35 267.05"
/>
<path stroke="#eaa1e5" stroke-opacity="0.741" vector-effect="non-scaling-stroke" d="
  M 0.63 318.28
  L 0.33 315.18"
/>
<path stroke="#eaa1e5" stroke-opacity="0.741" vector-effect="non-scaling-stroke" d="
  M 0.28 315.01
  Q 0.97 313.90 0.27 313.19"
/>
<path stroke="#eaa1e5" stroke-opacity="0.741" vector-effect="non-scaling-stroke" d="
  M 0.32 313.09
  L 0.40 303.21"
/>
<path stroke="#eaa1e5" stroke-opacity="0.741" vector-effect="non-scaling-stroke" d="
  M 0.38 303.00
  L 0.38 270.20"
/>
<path stroke="#eaa1e5" stroke-opacity="0.741" vector-effect="non-scaling-stroke" d="
  M 0.43 270.04
  Q 0.47 269.60 0.34 269.21"
/>
<path stroke="#eaa1e5" stroke-opacity="0.741" vector-effect="non-scaling-stroke" d="
  M 0.31 269.06
  Q 0.82 267.80 0.32 267.19"
/>
<path stroke="#e3e3ed" vector-effect="non-scaling-stroke" d="
  M 149.21 272.31
  Q 149.51 274.71 149.45 277.00
  Q 149.14 289.95 148.85 302.90
  Q 148.77 306.41 149.31 309.92"
/>
</g>
<path fill="#e4a5dc" d="
  M 0.70 0.00
  L 0.82 40.69
  Q 0.17 40.67 0.21 39.74
  Q 0.41 34.41 0.00 29.12
  L 0.00 20.61
  L 0.00 1.15
  L 0.00 0.00
  L 0.70 0.00
  Z"
/>
<path fill="#f2e4f4" d="
  M 196.24 0.00
  C 210.28 1.93 229.69 2.82 229.42 22.49
  Q 229.29 31.96 225.36 43.35
  Q 219.04 61.67 208.45 75.86
  C 205.78 79.45 200.11 86.10 195.75 85.82
  C 191.83 85.57 189.78 80.69 189.05 77.88
  Q 185.19 62.86 184.20 59.63
  Q 174.21 27.16 143.18 14.59
  C 129.51 9.05 116.24 5.45 101.47 9.07
  Q 83.17 13.56 68.32 24.09
  C 56.79 32.27 47.20 44.30 39.68 56.82
  C 31.86 69.83 27.91 84.96 30.44 99.90
  C 33.94 120.64 52.39 122.99 66.94 111.51
  Q 71.24 108.10 82.11 96.12
  Q 87.69 89.97 94.34 87.83
  C 97.40 86.84 100.96 88.43 100.79 92.09
  C 100.53 97.27 96.15 103.02 92.68 107.10
  C 85.80 115.18 76.62 124.49 69.99 133.07
  C 62.15 143.22 55.59 152.51 45.16 159.03
  Q 31.52 167.57 16.32 163.11
  Q 9.39 161.08 1.85 158.53
  A 0.72 0.71 8.8 0 1 1.36 157.87
  Q 1.07 148.86 1.03 138.25
  Q 0.90 103.09 1.11 51.76
  C 1.12 49.06 0.73 45.78 0.70 42.79
  L 0.82 40.69
  L 0.70 0.00
  L 196.24 0.00
  Z"
/>
<path fill="#eedcf0" d="
  M 253.81 0.00
  C 256.11 13.07 252.88 24.71 248.44 37.45
  Q 233.14 81.42 200.59 114.60
  Q 183.03 132.51 158.38 140.72
  Q 135.63 148.29 112.18 153.06
  Q 120.29 142.38 126.09 138.08
  Q 127.42 137.09 139.97 127.70
  C 142.77 125.60 145.97 122.58 147.77 120.52
  Q 158.94 107.74 167.10 97.58
  A 7.68 7.49 -14.2 0 0 168.05 96.03
  Q 169.37 93.10 170.07 90.29
  Q 173.27 77.51 174.69 66.49
  Q 176.06 55.83 171.21 47.17
  Q 166.33 36.04 157.63 27.10
  Q 150.35 19.63 142.07 16.34
  Q 133.31 12.87 123.40 12.90
  Q 112.92 13.62 104.11 17.60
  Q 100.53 19.21 97.32 22.91
  Q 90.87 25.62 83.78 28.52
  Q 81.55 29.43 81.76 31.46
  Q 81.30 31.57 81.07 32.07
  Q 81.36 30.68 80.82 30.14
  A 0.58 0.56 -33.3 0 0 80.18 30.02
  L 64.16 37.01
  A 1.90 1.89 -20.0 0 0 63.09 39.30
  L 66.53 50.77
  Q 57.38 54.43 49.58 60.04
  Q 47.08 60.39 45.53 61.70
  Q 44.05 62.96 43.84 65.58
  C 43.24 73.28 42.07 79.99 42.04 88.48
  Q 42.00 99.64 42.04 110.80
  L 41.96 116.21
  A 0.63 0.63 0.0 0 0 43.03 116.66
  L 72.05 87.75
  Q 81.53 83.30 86.37 81.90
  Q 95.07 79.38 102.88 76.88
  Q 112.49 75.13 118.09 72.38
  Q 129.86 66.59 134.63 64.36
  Q 136.66 63.41 139.44 62.78
  Q 143.80 63.33 146.78 67.05
  Q 146.62 72.77 143.34 79.05
  Q 139.81 86.33 137.73 88.73
  Q 129.52 98.20 118.37 104.62
  Q 107.87 110.67 100.36 117.64
  Q 95.47 122.18 81.20 136.15
  Q 75.80 141.43 72.30 146.76
  Q 64.95 157.96 59.27 168.72
  C 57.00 173.02 55.84 178.36 54.80 183.25
  C 44.76 188.05 34.94 191.42 23.75 190.69
  Q 14.37 190.07 1.69 186.03
  A 0.63 0.61 -82.3 0 1 1.26 185.45
  L 0.78 152.04
  L 0.66 114.31
  L 0.62 97.68
  Q 0.94 96.35 0.71 94.79
  Q 0.87 94.12 0.69 93.46
  Q 0.77 93.22 0.64 93.09
  L 0.63 83.42
  Q 0.69 83.36 0.76 83.30
  L 0.73 81.70
  L 0.70 42.79
  C 0.73 45.78 1.12 49.06 1.11 51.76
  Q 0.90 103.09 1.03 138.25
  Q 1.07 148.86 1.36 157.87
  A 0.72 0.71 8.8 0 0 1.85 158.53
  Q 9.39 161.08 16.32 163.11
  Q 31.52 167.57 45.16 159.03
  C 55.59 152.51 62.15 143.22 69.99 133.07
  C 76.62 124.49 85.80 115.18 92.68 107.10
  C 96.15 103.02 100.53 97.27 100.79 92.09
  C 100.96 88.43 97.40 86.84 94.34 87.83
  Q 87.69 89.97 82.11 96.12
  Q 71.24 108.10 66.94 111.51
  C 52.39 122.99 33.94 120.64 30.44 99.90
  C 27.91 84.96 31.86 69.83 39.68 56.82
  C 47.20 44.30 56.79 32.27 68.32 24.09
  Q 83.17 13.56 101.47 9.07
  C 116.24 5.45 129.51 9.05 143.18 14.59
  Q 174.21 27.16 184.20 59.63
  Q 185.19 62.86 189.05 77.88
  C 189.78 80.69 191.83 85.57 195.75 85.82
  C 200.11 86.10 205.78 79.45 208.45 75.86
  Q 219.04 61.67 225.36 43.35
  Q 229.29 31.96 229.42 22.49
  C 229.69 2.82 210.28 1.93 196.24 0.00
  L 253.81 0.00
  Z"
/>
<path fill="#ecd1ee" d="
  M 274.46 0.00
  C 266.42 45.47 245.32 85.72 216.00 120.96
  Q 206.61 132.26 196.13 138.71
  C 181.94 147.45 165.17 151.43 148.75 154.97
  Q 143.09 155.04 137.34 155.02
  C 135.07 155.01 133.16 155.51 131.35 156.59
  Q 120.61 163.05 109.35 171.30
  Q 104.66 174.72 101.85 179.40
  Q 98.96 184.22 97.82 185.56
  A 0.39 0.39 0.0 0 1 97.13 185.33
  C 96.75 179.04 99.42 171.38 101.95 166.52
  C 104.28 162.06 108.61 157.25 112.18 153.06
  Q 135.63 148.29 158.38 140.72
  Q 183.03 132.51 200.59 114.60
  Q 233.14 81.42 248.44 37.45
  C 252.88 24.71 256.11 13.07 253.81 0.00
  L 274.46 0.00
  Z"
/>
<path fill="#e9c7ea" d="
  M 275.14 0.00
  Q 275.28 0.14 275.43 0.28
  L 275.42 41.25
  Q 275.39 41.35 275.36 41.46
  L 275.33 43.04
  Q 275.30 43.34 275.39 43.55
  L 275.29 85.73
  Q 274.72 74.96 274.88 64.14
  Q 274.95 66.87 274.76 69.73
  A 1.87 1.80 64.9 0 1 274.44 70.67
  Q 260.59 90.98 243.98 118.09
  Q 238.37 127.23 231.89 135.85
  C 221.11 150.19 207.62 156.70 190.53 161.56
  C 184.98 158.54 179.36 154.98 173.00 155.03
  Q 160.93 155.12 148.75 154.97
  C 165.17 151.43 181.94 147.45 196.13 138.71
  Q 206.61 132.26 216.00 120.96
  C 245.32 85.72 266.42 45.47 274.46 0.00
  L 275.14 0.00
  Z"
/>
<path fill="#e6b7e4" d="
  M 276.00 0.00
  L 276.00 320.00
  L 274.37 320.00
  Q 274.58 319.70 275.41 319.70
  L 275.36 127.32
  L 275.38 123.65
  A 0.03 0.03 0.0 0 0 275.32 123.64
  Q 275.02 125.56 275.36 127.32
  Q 275.26 127.39 275.16 127.47
  A 0.10 0.10 0.0 0 0 275.13 127.54
  L 275.20 150.46
  L 275.19 154.25
  L 275.17 181.70
  L 274.94 188.78
  A 0.11 0.10 46.8 0 1 274.73 188.77
  L 274.73 184.84
  A 0.57 0.56 -4.8 0 0 274.07 184.29
  Q 249.54 188.46 224.98 183.24
  Q 208.53 171.39 190.53 161.56
  C 207.62 156.70 221.11 150.19 231.89 135.85
  Q 238.37 127.23 243.98 118.09
  Q 260.59 90.98 274.44 70.67
  A 1.87 1.80 64.9 0 0 274.76 69.73
  Q 274.95 66.87 274.88 64.14
  Q 274.72 74.96 275.29 85.73
  Q 275.39 104.36 275.38 123.06
  Q 275.38 123.36 275.38 123.19
  Q 275.45 83.37 275.39 43.55
  Q 275.30 43.34 275.33 43.04
  Q 275.50 42.25 275.36 41.46
  Q 275.39 41.35 275.42 41.25
  L 275.43 0.28
  Q 275.28 0.14 275.14 0.00
  L 276.00 0.00
  Z"
/>
<path fill="#f899f7" fill-opacity="0.478" d="
  M 275.42 41.25
  L 275.43 0.28
  L 275.42 41.25
  Z"
/>
<path fill="#e6b7e4" d="
  M 0.00 20.61
  L 0.00 1.15
  L 0.00 20.61
  Z"
/>
<path fill="#e580c7" d="
  M 123.40 12.90
  Q 125.26 14.42 127.44 15.32
  A 0.52 0.40 -7.6 0 1 127.58 15.40
  L 140.93 25.26
  A 1.92 1.86 3.9 0 1 141.46 25.85
  Q 142.78 28.16 143.31 31.50
  Q 144.11 36.52 145.17 39.94
  A 0.53 0.52 72.3 0 1 144.84 40.59
  Q 141.53 41.69 135.57 44.07
  Q 134.24 44.60 126.71 48.44
  Q 121.68 51.00 116.14 52.76
  Q 123.73 43.12 129.65 33.07
  A 3.90 3.64 84.2 0 1 130.19 32.36
  Q 131.41 31.12 131.90 29.85
  Q 132.58 29.66 132.61 29.60
  A 1.10 1.09 28.9 0 0 132.17 28.10
  C 126.93 25.29 122.34 22.74 116.20 21.84
  A 2.14 2.00 -28.6 0 1 115.85 21.75
  L 112.92 20.79
  A 0.62 0.62 0.0 0 1 112.74 19.70
  L 116.77 16.66
  A 0.41 0.41 0.0 0 0 116.60 15.93
  Q 115.98 15.82 115.09 16.37
  Q 110.86 19.03 106.71 21.98
  Q 106.41 21.07 105.97 20.57
  A 0.83 0.82 59.6 0 0 105.11 20.34
  L 97.32 22.91
  Q 100.53 19.21 104.11 17.60
  Q 112.92 13.62 123.40 12.90
  Z"
/>
<path fill="#cc3599" d="
  M 171.21 47.17
  L 170.94 66.91
  A 13.82 13.37 52.5 0 1 170.63 69.61
  Q 168.90 77.54 167.77 80.81
  Q 165.49 87.41 164.28 91.41
  C 163.42 94.25 161.74 97.71 159.76 99.02
  C 154.98 102.19 148.88 105.27 143.60 109.26
  Q 137.52 113.86 137.16 114.15
  C 133.60 117.02 129.28 121.53 126.50 126.16
  Q 124.36 129.72 122.60 132.49
  A 4.16 3.99 -5.6 0 1 121.82 133.40
  Q 118.86 135.96 114.35 140.10
  C 111.68 142.55 109.95 145.30 107.88 147.63
  C 103.87 152.16 100.06 159.25 97.31 163.05
  Q 96.39 164.32 91.82 169.99
  Q 88.72 173.83 89.40 179.80
  A 3.14 3.08 -61.9 0 0 89.71 180.86
  C 92.03 185.50 94.20 189.64 95.58 194.16
  Q 96.28 196.42 97.14 198.25
  A 0.54 0.54 0.0 0 0 98.16 198.14
  C 99.72 190.85 101.56 185.78 105.34 178.97
  Q 107.40 175.28 109.35 171.30
  Q 120.61 163.05 131.35 156.59
  C 133.16 155.51 135.07 155.01 137.34 155.02
  Q 143.09 155.04 148.75 154.97
  Q 160.93 155.12 173.00 155.03
  C 179.36 154.98 184.98 158.54 190.53 161.56
  Q 208.53 171.39 224.98 183.24
  L 229.92 187.64
  L 220.81 187.90
  A 0.86 0.85 86.0 0 0 219.99 188.85
  Q 220.49 193.42 220.82 196.99
  Q 221.15 200.48 219.74 208.51
  Q 219.30 211.04 217.38 213.13
  Q 206.97 224.51 202.67 228.76
  A 5.29 4.99 -7.8 0 0 202.08 229.49
  C 198.29 235.33 196.80 241.99 194.83 250.08
  Q 194.34 252.10 193.40 253.48
  A 1.71 1.70 -62.5 0 1 191.38 254.12
  Q 184.42 251.52 176.75 249.78
  Q 174.09 249.18 170.35 247.61
  Q 165.87 245.73 164.16 244.90
  C 162.25 243.98 157.42 242.46 155.83 244.87
  A 0.52 0.51 -60.8 0 0 156.04 245.62
  L 165.46 250.04
  A 0.57 0.56 -56.6 0 1 165.64 250.93
  C 161.85 255.12 159.43 259.99 156.03 265.21
  A 1.40 1.38 13.4 0 1 155.01 265.83
  Q 153.45 265.97 152.11 265.41
  Q 139.89 260.28 131.76 257.17
  C 124.97 254.57 116.09 253.63 109.48 253.83
  Q 104.45 253.99 100.05 253.39
  C 94.81 252.67 89.01 253.09 83.41 252.51
  Q 79.58 252.12 76.33 251.35
  Q 76.00 251.27 75.71 251.58
  Q 75.52 251.78 75.72 252.26
  Q 68.67 246.01 62.73 238.47
  Q 61.34 236.26 60.44 233.60
  Q 57.88 226.03 55.08 218.38
  L 52.61 211.03
  L 65.72 204.25
  A 1.82 1.69 2.0 0 0 66.34 203.71
  Q 68.44 200.78 69.23 197.69
  Q 73.79 179.69 77.45 168.45
  Q 77.79 167.40 80.03 165.47
  A 7.26 7.24 86.0 0 0 81.40 163.89
  Q 87.29 154.74 93.37 147.25
  C 95.90 144.15 98.08 140.55 100.36 137.86
  Q 105.03 132.33 108.97 127.82
  Q 113.41 122.74 115.80 119.50
  Q 120.24 113.47 122.71 111.15
  A 4.90 4.64 5.3 0 1 123.50 110.53
  Q 131.28 105.44 135.01 102.76
  Q 141.03 98.44 143.02 96.27
  Q 149.51 89.20 151.38 79.85
  A 0.24 0.24 0.0 0 1 151.83 79.79
  L 153.30 82.72
  A 0.72 0.72 0.0 0 0 154.55 82.79
  Q 163.99 68.11 166.89 52.53
  Q 167.00 51.96 166.78 51.45
  A 0.43 0.43 0.0 0 0 166.19 51.24
  L 149.66 59.50
  A 0.94 0.94 0.0 0 0 149.33 60.90
  L 152.43 65.04
  Q 152.78 65.74 152.64 66.32
  A 0.75 0.74 5.6 0 1 151.94 66.89
  L 146.78 67.05
  Q 143.80 63.33 139.44 62.78
  L 141.13 54.78
  A 0.48 0.47 -12.6 0 0 140.38 54.31
  L 128.66 63.15
  A 4.14 4.10 25.0 0 1 126.33 63.98
  L 121.11 64.20
  A 2.18 2.08 -36.1 0 1 120.43 64.11
  Q 116.07 62.80 111.30 62.44
  Q 110.15 62.35 108.88 60.23
  A 1.56 1.56 0.0 0 1 109.25 58.21
  L 116.14 52.76
  Q 121.68 51.00 126.71 48.44
  Q 134.24 44.60 135.57 44.07
  Q 141.53 41.69 144.84 40.59
  A 0.53 0.52 72.3 0 0 145.17 39.94
  Q 144.11 36.52 143.31 31.50
  Q 142.78 28.16 141.46 25.85
  A 1.92 1.86 3.9 0 0 140.93 25.26
  L 127.58 15.40
  A 0.52 0.40 -7.6 0 0 127.44 15.32
  Q 125.26 14.42 123.40 12.90
  Q 133.31 12.87 142.07 16.34
  Q 150.35 19.63 157.63 27.10
  Q 166.33 36.04 171.21 47.17
  Z
  M 143.71 192.81
  L 137.69 201.00
  A 1.22 1.22 0.0 0 0 138.03 202.75
  L 162.95 218.09
  A 1.43 1.42 -55.9 0 0 164.84 217.72
  L 170.16 210.62
  L 187.66 189.74
  A 1.07 1.07 0.0 0 0 187.40 188.14
  L 183.21 185.55
  A 0.88 0.88 0.0 0 0 182.00 185.84
  L 180.32 188.57
  A 1.10 1.09 35.2 0 1 178.70 188.85
  Q 168.69 180.70 157.20 174.73
  A 1.14 1.14 0.0 0 0 155.73 175.10
  L 143.71 192.81
  Z"
/>
<path fill="#db4fad" d="
  M 131.90 29.85
  Q 125.42 26.46 121.68 25.57
  Q 115.74 24.16 107.27 25.00
  L 106.71 21.98
  Q 110.86 19.03 115.09 16.37
  Q 115.98 15.82 116.60 15.93
  A 0.41 0.41 0.0 0 1 116.77 16.66
  L 112.74 19.70
  A 0.62 0.62 0.0 0 0 112.92 20.79
  L 115.85 21.75
  A 2.14 2.00 -28.6 0 0 116.20 21.84
  C 122.34 22.74 126.93 25.29 132.17 28.10
  A 1.10 1.09 28.9 0 1 132.61 29.60
  Q 132.58 29.66 131.90 29.85
  Z"
/>
<path fill="#20213b" d="
  M 106.71 21.98
  L 107.27 25.00
  L 107.18 32.70
  A 0.32 0.32 0.0 0 0 107.64 32.98
  Q 112.97 30.24 118.75 33.11
  Q 119.03 33.41 118.67 33.72
  A 0.48 0.47 40.0 0 1 118.09 33.77
  Q 118.01 33.72 117.92 33.62
  A 0.26 0.26 0.0 0 0 117.46 33.72
  Q 115.36 41.71 106.99 40.91
  A 0.82 0.81 12.5 0 0 106.13 41.45
  Q 105.89 42.14 104.67 45.46
  C 103.01 49.97 98.51 51.91 94.00 52.62
  Q 90.28 53.20 88.34 50.60
  C 84.22 45.07 83.25 38.89 81.76 31.46
  Q 81.55 29.43 83.78 28.52
  Q 90.87 25.62 97.32 22.91
  L 105.11 20.34
  A 0.83 0.82 59.6 0 1 105.97 20.57
  Q 106.41 21.07 106.71 21.98
  Z
  M 91.05 49.58
  C 103.40 48.91 103.35 33.52 102.80 24.62
  A 0.84 0.84 0.0 0 0 101.59 23.91
  Q 93.61 27.84 84.97 30.13
  A 0.84 0.84 0.0 0 0 84.34 30.94
  Q 84.34 40.96 90.28 49.21
  A 0.92 0.91 70.3 0 0 91.05 49.58
  Z
  M 114.0020 34.4940
  A 2.39 1.91 -13.7 0 0 111.2276 33.2043
  A 2.39 1.91 -13.7 0 0 109.3580 35.6260
  A 2.39 1.91 -13.7 0 0 112.1324 36.9157
  A 2.39 1.91 -13.7 0 0 114.0020 34.4940
  Z"
/>
<path fill="#323554" d="
  M 90.28 49.21
  Q 84.34 40.96 84.34 30.94
  A 0.84 0.84 0.0 0 1 84.97 30.13
  Q 93.61 27.84 101.59 23.91
  A 0.84 0.84 0.0 0 1 102.80 24.62
  C 103.35 33.52 103.40 48.91 91.05 49.58
  A 0.92 0.91 70.3 0 1 90.28 49.21
  Z"
/>
<path fill="#d9d9e4" d="
  M 131.90 29.85
  Q 131.41 31.12 130.19 32.36
  A 3.90 3.64 84.2 0 0 129.65 33.07
  Q 123.73 43.12 116.14 52.76
  L 109.25 58.21
  A 1.56 1.56 0.0 0 0 108.88 60.23
  Q 110.15 62.35 111.30 62.44
  L 117.02 66.27
  A 0.35 0.34 44.2 0 1 117.03 66.84
  L 102.88 76.88
  Q 95.07 79.38 86.37 81.90
  Q 81.53 83.30 72.05 87.75
  L 59.63 72.50
  Q 59.76 72.35 59.45 71.86
  Q 67.27 68.35 74.59 66.38
  C 88.76 62.56 97.80 60.94 106.93 56.66
  C 110.36 55.05 111.77 52.70 113.77 49.44
  C 116.45 45.07 120.80 42.29 123.48 37.95
  Q 125.39 34.84 126.65 30.91
  A 0.42 0.42 0.0 0 0 126.30 30.36
  L 121.83 29.80
  A 1.05 1.04 21.6 0 0 120.87 30.21
  L 118.75 33.11
  Q 112.97 30.24 107.64 32.98
  A 0.32 0.32 0.0 0 1 107.18 32.70
  L 107.27 25.00
  Q 115.74 24.16 121.68 25.57
  Q 125.42 26.46 131.90 29.85
  Z"
/>
<path fill="#e6b7e4" d="
  M 0.82 40.69
  L 0.70 42.79
  L 0.73 81.70
  Q 0.49 82.43 0.76 83.30
  Q 0.69 83.36 0.63 83.42
  L 0.64 93.09
  Q 0.77 93.22 0.69 93.46
  L 0.71 94.79
  Q 0.94 96.35 0.62 97.68
  L 0.66 114.31
  L 0.78 152.04
  L 0.86 234.68
  A 0.13 0.12 -2.2 0 0 1.00 234.80
  A 0.15 0.15 0.0 0 0 1.13 234.65
  L 1.12 232.85
  A 0.62 0.62 0.0 0 1 1.75 232.22
  C 14.30 232.47 26.52 231.84 38.36 227.39
  Q 45.39 224.76 55.08 218.38
  Q 57.88 226.03 60.44 233.60
  Q 61.34 236.26 62.73 238.47
  Q 51.47 247.30 41.76 251.04
  C 28.83 256.02 15.30 257.35 1.54 257.86
  A 0.50 0.50 0.0 0 1 1.02 257.38
  L 0.56 242.71
  L 0.46 201.08
  A 0.02 0.02 0.0 0 0 0.43 201.06
  Q 0.42 201.07 0.41 201.08
  A 0.17 0.15 -22.5 0 0 0.35 201.20
  L 0.35 267.05
  Q 0.33 267.12 0.32 267.19
  L 0.31 269.06
  Q 0.33 269.13 0.34 269.21
  Q 0.30 269.65 0.43 270.04
  Q 0.41 270.12 0.38 270.20
  L 0.38 303.00
  Q 0.39 303.11 0.40 303.21
  L 0.32 313.09
  Q 0.29 313.14 0.27 313.19
  Q 0.08 314.10 0.28 315.01
  Q 0.30 315.09 0.33 315.18
  L 0.22 319.53
  A 0.07 0.07 0.0 0 0 0.28 319.60
  Q 0.40 319.61 0.55 319.50
  L 1.12 320.00
  L 0.00 320.00
  L 0.00 29.12
  Q 0.41 34.41 0.21 39.74
  Q 0.17 40.67 0.82 40.69
  Z
  M 0.43 197.82
  Q 0.58 197.82 0.51 197.52
  Q 0.48 197.40 0.37 197.43
  A 0.20 0.20 0.0 0 0 0.43 197.82
  Z
  M 0.12 199.72
  Q -0.01 200.40 0.05 200.52
  A 0.33 0.33 0.0 0 0 0.66 200.42
  Q 0.75 199.92 0.64 199.66
  A 0.28 0.27 -51.4 0 0 0.12 199.72
  Z"
/>
<path fill="#ecedf5" d="
  M 59.45 71.86
  L 49.58 60.04
  Q 57.38 54.43 66.53 50.77
  L 80.37 44.85
  A 1.05 1.04 78.5 0 0 81.00 43.89
  L 81.07 32.07
  Q 81.30 31.57 81.76 31.46
  C 83.25 38.89 84.22 45.07 88.34 50.60
  Q 90.28 53.20 94.00 52.62
  C 98.51 51.91 103.01 49.97 104.67 45.46
  Q 105.89 42.14 106.13 41.45
  A 0.82 0.81 12.5 0 1 106.99 40.91
  Q 115.36 41.71 117.46 33.72
  A 0.26 0.26 0.0 0 1 117.92 33.62
  Q 118.01 33.72 118.09 33.77
  A 0.48 0.47 40.0 0 0 118.67 33.72
  Q 119.03 33.41 118.75 33.11
  L 120.87 30.21
  A 1.05 1.04 21.6 0 1 121.83 29.80
  L 126.30 30.36
  A 0.42 0.42 0.0 0 1 126.65 30.91
  Q 125.39 34.84 123.48 37.95
  C 120.80 42.29 116.45 45.07 113.77 49.44
  C 111.77 52.70 110.36 55.05 106.93 56.66
  C 97.80 60.94 88.76 62.56 74.59 66.38
  Q 67.27 68.35 59.45 71.86
  Z"
/>
<path fill="#323554" d="
  M 81.07 32.07
  L 81.00 43.89
  A 1.05 1.04 78.5 0 1 80.37 44.85
  L 66.53 50.77
  L 63.09 39.30
  A 1.90 1.89 -20.0 0 1 64.16 37.01
  L 80.18 30.02
  A 0.58 0.56 -33.3 0 1 80.82 30.14
  Q 81.36 30.68 81.07 32.07
  Z"
/>
<ellipse fill="#ecedf5" cx="0.00" cy="0.00" transform="translate(111.68,35.06) rotate(-13.7)" rx="2.39" ry="1.91"/>
<path fill="#f899f7" fill-opacity="0.478" d="
  M 275.33 43.04
  L 275.36 41.46
  Q 275.50 42.25 275.33 43.04
  Z"
/>
<path fill="#f899f7" fill-opacity="0.478" d="
  M 275.29 85.73
  L 275.39 43.55
  Q 275.45 83.37 275.38 123.19
  Q 275.38 123.36 275.38 123.06
  Q 275.39 104.36 275.29 85.73
  Z"
/>
<path fill="#8e1c67" d="
  M 171.21 47.17
  Q 176.06 55.83 174.69 66.49
  Q 173.27 77.51 170.07 90.29
  Q 169.37 93.10 168.05 96.03
  A 7.68 7.49 -14.2 0 1 167.10 97.58
  Q 158.94 107.74 147.77 120.52
  C 145.97 122.58 142.77 125.60 139.97 127.70
  Q 127.42 137.09 126.09 138.08
  Q 120.29 142.38 112.18 153.06
  C 108.61 157.25 104.28 162.06 101.95 166.52
  C 99.42 171.38 96.75 179.04 97.13 185.33
  A 0.39 0.39 0.0 0 0 97.82 185.56
  Q 98.96 184.22 101.85 179.40
  Q 104.66 174.72 109.35 171.30
  Q 107.40 175.28 105.34 178.97
  C 101.56 185.78 99.72 190.85 98.16 198.14
  A 0.54 0.54 0.0 0 1 97.14 198.25
  Q 96.28 196.42 95.58 194.16
  C 94.20 189.64 92.03 185.50 89.71 180.86
  A 3.14 3.08 -61.9 0 1 89.40 179.80
  Q 88.72 173.83 91.82 169.99
  Q 96.39 164.32 97.31 163.05
  C 100.06 159.25 103.87 152.16 107.88 147.63
  C 109.95 145.30 111.68 142.55 114.35 140.10
  Q 118.86 135.96 121.82 133.40
  A 4.16 3.99 -5.6 0 0 122.60 132.49
  Q 124.36 129.72 126.50 126.16
  C 129.28 121.53 133.60 117.02 137.16 114.15
  Q 137.52 113.86 143.60 109.26
  C 148.88 105.27 154.98 102.19 159.76 99.02
  C 161.74 97.71 163.42 94.25 164.28 91.41
  Q 165.49 87.41 167.77 80.81
  Q 168.90 77.54 170.63 69.61
  A 13.82 13.37 52.5 0 0 170.94 66.91
  L 171.21 47.17
  Z"
/>
<path fill="#e580c7" d="
  M 52.61 211.03
  Q 51.10 209.35 51.37 206.27
  Q 52.29 195.94 54.80 183.25
  C 55.84 178.36 57.00 173.02 59.27 168.72
  Q 64.95 157.96 72.30 146.76
  Q 75.80 141.43 81.20 136.15
  Q 95.47 122.18 100.36 117.64
  Q 107.87 110.67 118.37 104.62
  Q 129.52 98.20 137.73 88.73
  Q 139.81 86.33 143.34 79.05
  Q 149.74 74.27 152.83 67.14
  A 2.26 2.25 -32.3 0 0 153.03 66.26
  Q 153.09 64.86 152.43 65.04
  L 149.33 60.90
  A 0.94 0.94 0.0 0 1 149.66 59.50
  L 166.19 51.24
  A 0.43 0.43 0.0 0 1 166.78 51.45
  Q 167.00 51.96 166.89 52.53
  Q 163.99 68.11 154.55 82.79
  A 0.72 0.72 0.0 0 1 153.30 82.72
  L 151.83 79.79
  A 0.24 0.24 0.0 0 0 151.38 79.85
  Q 149.51 89.20 143.02 96.27
  Q 141.03 98.44 135.01 102.76
  Q 131.28 105.44 123.50 110.53
  A 4.90 4.64 5.3 0 0 122.71 111.15
  Q 120.24 113.47 115.80 119.50
  Q 113.41 122.74 108.97 127.82
  Q 105.03 132.33 100.36 137.86
  C 98.08 140.55 95.90 144.15 93.37 147.25
  Q 87.29 154.74 81.40 163.89
  A 7.26 7.24 86.0 0 1 80.03 165.47
  Q 77.79 167.40 77.45 168.45
  Q 73.79 179.69 69.23 197.69
  Q 68.44 200.78 66.34 203.71
  A 1.82 1.69 2.0 0 1 65.72 204.25
  L 52.61 211.03
  Z"
/>
<path fill="#8e1c67" d="
  M 139.44 62.78
  Q 136.66 63.41 134.63 64.36
  Q 129.86 66.59 118.09 72.38
  Q 112.49 75.13 102.88 76.88
  L 117.03 66.84
  A 0.35 0.34 44.2 0 0 117.02 66.27
  L 111.30 62.44
  Q 116.07 62.80 120.43 64.11
  A 2.18 2.08 -36.1 0 0 121.11 64.20
  L 126.33 63.98
  A 4.14 4.10 25.0 0 0 128.66 63.15
  L 140.38 54.31
  A 0.48 0.47 -12.6 0 1 141.13 54.78
  L 139.44 62.78
  Z"
/>
<path fill="#323554" d="
  M 49.58 60.04
  L 59.45 71.86
  Q 59.76 72.35 59.63 72.50
  C 52.55 83.13 49.34 95.12 45.60 107.24
  Q 44.84 109.68 42.04 110.80
  Q 42.00 99.64 42.04 88.48
  C 42.07 79.99 43.24 73.28 43.84 65.58
  Q 44.05 62.96 45.53 61.70
  Q 47.08 60.39 49.58 60.04
  Z"
/>
<path fill="#db4fad" d="
  M 143.34 79.05
  Q 146.62 72.77 146.78 67.05
  L 151.94 66.89
  A 0.75 0.74 5.6 0 0 152.64 66.32
  Q 152.78 65.74 152.43 65.04
  Q 153.09 64.86 153.03 66.26
  A 2.26 2.25 -32.3 0 1 152.83 67.14
  Q 149.74 74.27 143.34 79.05
  Z"
/>
<path fill="#20213b" d="
  M 59.63 72.50
  L 72.05 87.75
  L 43.03 116.66
  A 0.63 0.63 0.0 0 1 41.96 116.21
  L 42.04 110.80
  Q 44.84 109.68 45.60 107.24
  C 49.34 95.12 52.55 83.13 59.63 72.50
  Z"
/>
<path fill="#e293d4" d="
  M 0.73 81.70
  L 0.76 83.30
  Q 0.49 82.43 0.73 81.70
  Z"
/>
<path fill="#e293d4" d="
  M 0.63 83.42
  L 0.64 93.09
  L 0.63 83.42
  Z"
/>
<path fill="#e293d4" d="
  M 0.69 93.46
  Q 0.87 94.12 0.71 94.79
  L 0.69 93.46
  Z"
/>
<path fill="#e293d4" d="
  M 0.62 97.68
  L 0.66 114.31
  L 0.62 97.68
  Z"
/>
<path fill="#f899f7" fill-opacity="0.478" d="
  M 275.36 127.32
  Q 275.02 125.56 275.32 123.64
  A 0.03 0.03 0.0 0 1 275.38 123.65
  L 275.36 127.32
  Z"
/>
<path fill="#f899f7" fill-opacity="0.478" d="
  M 275.36 127.32
  L 275.41 319.70
  L 275.24 272.69
  L 275.20 267.56
  L 275.27 216.95
  L 275.17 181.70
  L 275.19 154.25
  L 275.20 150.46
  L 275.13 127.54
  A 0.10 0.10 0.0 0 1 275.16 127.47
  Q 275.26 127.39 275.36 127.32
  Z"
/>
<path fill="#e580c7" d="
  M 275.19 154.25
  L 275.20 150.46
  L 275.19 154.25
  Z"
/>
<path fill="#e9c7ea" d="
  M 54.80 183.25
  Q 52.29 195.94 51.37 206.27
  Q 51.10 209.35 52.61 211.03
  L 55.08 218.38
  Q 45.39 224.76 38.36 227.39
  C 26.52 231.84 14.30 232.47 1.75 232.22
  A 0.62 0.62 0.0 0 0 1.12 232.85
  L 1.13 234.65
  A 0.15 0.15 0.0 0 1 1.00 234.80
  A 0.13 0.12 -2.2 0 1 0.86 234.68
  L 0.78 152.04
  L 1.26 185.45
  A 0.63 0.61 -82.3 0 0 1.69 186.03
  Q 14.37 190.07 23.75 190.69
  C 34.94 191.42 44.76 188.05 54.80 183.25
  Z"
/>
<path fill="#db4fad" d="
  M 170.16 210.62
  Q 159.10 199.42 143.71 192.81
  L 155.73 175.10
  A 1.14 1.14 0.0 0 1 157.20 174.73
  Q 168.69 180.70 178.70 188.85
  A 1.10 1.09 35.2 0 0 180.32 188.57
  L 182.00 185.84
  A 0.88 0.88 0.0 0 1 183.21 185.55
  L 187.40 188.14
  A 1.07 1.07 0.0 0 1 187.66 189.74
  L 170.16 210.62
  Z"
/>
<path fill="#e4a5dc" d="
  M 275.17 181.70
  L 275.27 216.95
  L 274.80 222.42
  A 0.03 0.03 0.0 0 1 274.75 222.43
  Q 274.74 222.40 274.71 222.37
  A 0.33 0.10 -86.2 0 1 274.65 222.11
  L 274.59 216.96
  A 0.93 0.93 0.0 0 0 274.07 216.14
  L 240.27 199.56
  Q 235.44 192.91 229.92 187.64
  L 224.98 183.24
  Q 249.54 188.46 274.07 184.29
  A 0.57 0.56 -4.8 0 1 274.73 184.84
  L 274.73 188.77
  A 0.11 0.10 46.8 0 0 274.94 188.78
  L 275.17 181.70
  Z"
/>
<path fill="#8e1c67" d="
  M 229.92 187.64
  Q 235.44 192.91 240.27 199.56
  Q 247.94 209.42 254.20 220.17
  C 258.02 226.72 260.42 232.93 262.82 239.97
  A 0.43 0.43 0.0 0 1 262.18 240.47
  Q 260.74 239.55 259.70 238.09
  A 0.15 0.15 0.0 0 0 259.50 238.05
  L 259.49 238.05
  A 0.19 0.18 63.6 0 0 259.42 238.29
  Q 266.55 254.48 266.63 272.21
  A 0.72 0.72 0.0 0 1 266.03 272.92
  C 265.47 273.01 264.06 272.29 263.25 272.24
  Q 256.57 271.87 253.23 271.29
  C 248.26 270.42 243.31 268.49 237.78 265.43
  Q 227.21 259.57 215.52 257.34
  A 7.88 7.80 -47.8 0 0 211.78 257.54
  Q 201.83 260.56 191.86 263.72
  Q 186.05 265.56 173.04 268.87
  Q 163.61 271.26 154.24 274.16
  Q 151.85 271.99 149.21 272.31
  L 140.51 273.15
  Q 137.98 271.48 134.75 271.26
  Q 128.74 270.84 124.12 270.13
  Q 120.24 269.54 113.77 267.53
  Q 99.98 263.24 86.03 259.37
  Q 79.92 257.52 75.72 252.26
  Q 75.52 251.78 75.71 251.58
  Q 76.00 251.27 76.33 251.35
  Q 79.58 252.12 83.41 252.51
  C 89.01 253.09 94.81 252.67 100.05 253.39
  Q 104.45 253.99 109.48 253.83
  C 116.09 253.63 124.97 254.57 131.76 257.17
  Q 139.89 260.28 152.11 265.41
  Q 153.45 265.97 155.01 265.83
  A 1.40 1.38 13.4 0 0 156.03 265.21
  C 159.43 259.99 161.85 255.12 165.64 250.93
  A 0.57 0.56 -56.6 0 0 165.46 250.04
  L 156.04 245.62
  A 0.52 0.51 -60.8 0 1 155.83 244.87
  C 157.42 242.46 162.25 243.98 164.16 244.90
  Q 165.87 245.73 170.35 247.61
  Q 174.09 249.18 176.75 249.78
  Q 184.42 251.52 191.38 254.12
  A 1.71 1.70 -62.5 0 0 193.40 253.48
  Q 194.34 252.10 194.83 250.08
  C 196.80 241.99 198.29 235.33 202.08 229.49
  A 5.29 4.99 -7.8 0 1 202.67 228.76
  Q 206.97 224.51 217.38 213.13
  Q 219.30 211.04 219.74 208.51
  Q 221.15 200.48 220.82 196.99
  Q 220.49 193.42 219.99 188.85
  A 0.86 0.85 86.0 0 1 220.81 187.90
  L 229.92 187.64
  Z"
/>
<path fill="#e580c7" d="
  M 143.71 192.81
  Q 159.10 199.42 170.16 210.62
  L 164.84 217.72
  A 1.43 1.42 -55.9 0 1 162.95 218.09
  L 138.03 202.75
  A 1.22 1.22 0.0 0 1 137.69 201.00
  L 143.71 192.81
  Z"
/>
<path fill="#e293d4" d="
  M 0.43 197.82
  A 0.20 0.20 0.0 0 1 0.37 197.43
  Q 0.48 197.40 0.51 197.52
  Q 0.58 197.82 0.43 197.82
  Z"
/>
<path fill="#e293d4" d="
  M 275.27 216.95
  L 275.20 267.56
  L 275.24 272.69
  L 275.41 319.70
  Q 274.58 319.70 274.37 320.00
  L 1.12 320.00
  L 0.55 319.50
  L 0.63 318.28
  L 0.80 295.37
  A 1.02 1.00 74.0 0 1 1.24 294.55
  Q 11.12 287.91 23.40 286.64
  C 35.22 285.41 51.99 284.32 65.69 278.68
  C 74.74 274.95 80.81 267.67 86.03 259.37
  Q 99.98 263.24 113.77 267.53
  Q 120.24 269.54 124.12 270.13
  Q 128.74 270.84 134.75 271.26
  Q 137.98 271.48 140.51 273.15
  L 143.10 308.30
  A 0.75 0.75 0.0 0 0 143.61 308.97
  Q 146.33 309.92 149.31 309.92
  Q 150.43 309.94 150.72 308.43
  Q 152.80 297.47 153.08 285.28
  Q 153.14 282.61 153.58 279.72
  Q 154.04 276.77 154.24 274.16
  Q 163.61 271.26 173.04 268.87
  Q 186.05 265.56 191.86 263.72
  Q 201.83 260.56 211.78 257.54
  A 7.88 7.80 -47.8 0 1 215.52 257.34
  Q 227.21 259.57 237.78 265.43
  C 243.31 268.49 248.26 270.42 253.23 271.29
  Q 256.57 271.87 263.25 272.24
  C 264.06 272.29 265.47 273.01 266.03 272.92
  A 0.72 0.72 0.0 0 0 266.63 272.21
  Q 266.55 254.48 259.42 238.29
  A 0.19 0.18 63.6 0 1 259.49 238.05
  L 259.50 238.05
  A 0.15 0.15 0.0 0 1 259.70 238.09
  Q 260.74 239.55 262.18 240.47
  A 0.43 0.43 0.0 0 0 262.82 239.97
  C 260.42 232.93 258.02 226.72 254.20 220.17
  Q 247.94 209.42 240.27 199.56
  L 274.07 216.14
  A 0.93 0.93 0.0 0 1 274.59 216.96
  L 274.65 222.11
  A 0.33 0.10 -86.2 0 0 274.71 222.37
  Q 274.74 222.40 274.75 222.43
  A 0.03 0.03 0.0 0 0 274.80 222.42
  L 275.27 216.95
  Z"
/>
<path fill="#f899f7" fill-opacity="0.478" d="
  M 0.64 199.66
  Q 0.75 199.92 0.66 200.42
  A 0.33 0.33 0.0 0 1 0.05 200.52
  Q -0.01 200.40 0.12 199.72
  A 0.28 0.27 -51.4 0 1 0.64 199.66
  Z"
/>
<path fill="#f899f7" fill-opacity="0.478" d="
  M 0.56 242.71
  L 0.35 267.05
  L 0.35 201.20
  A 0.17 0.15 -22.5 0 1 0.41 201.08
  Q 0.42 201.07 0.43 201.06
  A 0.02 0.02 0.0 0 1 0.46 201.08
  L 0.56 242.71
  Z"
/>
<path fill="#e4a5dc" d="
  M 75.72 252.26
  Q 79.92 257.52 86.03 259.37
  C 80.81 267.67 74.74 274.95 65.69 278.68
  C 51.99 284.32 35.22 285.41 23.40 286.64
  Q 11.12 287.91 1.24 294.55
  A 1.02 1.00 74.0 0 0 0.80 295.37
  L 0.63 318.28
  L 0.33 315.18
  Q 0.30 315.09 0.28 315.01
  Q 0.97 313.90 0.27 313.19
  Q 0.29 313.14 0.32 313.09
  L 0.40 303.21
  Q 0.39 303.11 0.38 303.00
  L 0.38 270.20
  Q 0.41 270.12 0.43 270.04
  Q 0.47 269.60 0.34 269.21
  Q 0.33 269.13 0.31 269.06
  Q 0.82 267.80 0.32 267.19
  Q 0.33 267.12 0.35 267.05
  L 0.56 242.71
  L 1.02 257.38
  A 0.50 0.50 0.0 0 0 1.54 257.86
  C 15.30 257.35 28.83 256.02 41.76 251.04
  Q 51.47 247.30 62.73 238.47
  Q 68.67 246.01 75.72 252.26
  Z"
/>
<path fill="#f899f7" fill-opacity="0.478" d="
  M 0.31 269.06
  L 0.32 267.19
  Q 0.82 267.80 0.31 269.06
  Z"
/>
<path fill="#8e1c67" d="
  M 275.24 272.69
  L 275.20 267.56
  L 275.24 272.69
  Z"
/>
<path fill="#f899f7" fill-opacity="0.478" d="
  M 0.43 270.04
  Q 0.30 269.65 0.34 269.21
  Q 0.47 269.60 0.43 270.04
  Z"
/>
<path fill="#f899f7" fill-opacity="0.478" d="
  M 0.38 270.20
  L 0.38 303.00
  L 0.38 270.20
  Z"
/>
<path fill="#ecedf5" d="
  M 149.21 272.31
  Q 149.51 274.71 149.45 277.00
  Q 149.14 289.95 148.85 302.90
  Q 148.77 306.41 149.31 309.92
  Q 146.33 309.92 143.61 308.97
  A 0.75 0.75 0.0 0 1 143.10 308.30
  L 140.51 273.15
  L 149.21 272.31
  Z"
/>
<path fill="#d9d9e4" d="
  M 154.24 274.16
  Q 154.04 276.77 153.58 279.72
  Q 153.14 282.61 153.08 285.28
  Q 152.80 297.47 150.72 308.43
  Q 150.43 309.94 149.31 309.92
  Q 148.77 306.41 148.85 302.90
  Q 149.14 289.95 149.45 277.00
  Q 149.51 274.71 149.21 272.31
  Q 151.85 271.99 154.24 274.16
  Z"
/>
<path fill="#f899f7" fill-opacity="0.478" d="
  M 0.32 313.09
  L 0.40 303.21
  L 0.32 313.09
  Z"
/>
<path fill="#f899f7" fill-opacity="0.478" d="
  M 0.28 315.01
  Q 0.08 314.10 0.27 313.19
  Q 0.97 313.90 0.28 315.01
  Z"
/>
<path fill="#f899f7" fill-opacity="0.478" d="
  M 0.63 318.28
  L 0.55 319.50
  Q 0.40 319.61 0.28 319.60
  A 0.07 0.07 0.0 0 1 0.22 319.53
  L 0.33 315.18
  L 0.63 318.28
  Z"
/>
</svg>
